<svg width="24" height="25" viewBox="0 0 24 25" fill="none" xmlns="http://www.w3.org/2000/svg">
<path d="M15.3453 23.6562L10.1279 18.3438L11.8465 16.5938L15.3453 20.1562L22.2813 13.0938L24 14.8438L15.3453 23.6562ZM22.0972 11.25H19.6419V5H17.1867V8.75H4.91049V5H2.45524V22.5H9.82097V25H2.45524C1.78005 25 1.20205 24.7552 0.721228 24.2656C0.240409 23.776 0 23.1875 0 22.5V5C0 4.3125 0.240409 3.72396 0.721228 3.23438C1.20205 2.74479 1.78005 2.5 2.45524 2.5H7.58056C7.80563 1.77083 8.24552 1.17188 8.90026 0.703125C9.55499 0.234375 10.2711 0 11.0486 0C11.867 0 12.5985 0.234375 13.243 0.703125C13.8875 1.17188 14.3223 1.77083 14.5473 2.5H19.6419C20.3171 2.5 20.8951 2.74479 21.376 3.23438C21.8568 3.72396 22.0972 4.3125 22.0972 5V11.25ZM11.0486 5C11.3964 5 11.688 4.88021 11.9233 4.64062C12.1586 4.40104 12.2762 4.10417 12.2762 3.75C12.2762 3.39583 12.1586 3.09896 11.9233 2.85938C11.688 2.61979 11.3964 2.5 11.0486 2.5C10.7008 2.5 10.4092 2.61979 10.1739 2.85938C9.93862 3.09896 9.82097 3.39583 9.82097 3.75C9.82097 4.10417 9.93862 4.40104 10.1739 4.64062C10.4092 4.88021 10.7008 5 11.0486 5Z" fill="white"/>
</svg>
