<svg width="1413" height="735" viewBox="0 0 1413 735" fill="none" xmlns="http://www.w3.org/2000/svg">
<g opacity="0.2">
<path d="M377.401 831.969C377.329 830.282 377.163 828.594 377.163 826.907C377.163 752.728 377.139 678.549 377.21 604.37C377.21 601.541 376.284 599.568 374.359 597.667C366.279 589.681 358.175 581.695 350.285 573.519C348.931 572.117 347.838 569.788 347.838 567.862C347.719 492.59 347.766 417.318 347.766 342.069C347.743 260.736 347.695 179.403 347.695 98.0932C347.695 95.2173 347.291 93.2208 344.368 91.6284C340.281 89.418 338.855 84.0227 340.305 79.4831C341.778 74.8959 345.984 71.9012 350.785 72.02C354.991 72.1151 359.459 75.4426 360.694 79.3642C362.191 84.1891 360.647 89.2754 356.393 91.771C354.207 93.0544 353.375 94.4567 353.399 96.9524C353.446 175.742 353.422 254.509 353.446 333.299C353.47 410.259 353.517 487.218 353.47 564.202C353.47 567.197 354.159 569.431 356.393 571.594C364.306 579.247 371.935 587.209 379.872 594.839C382.32 597.192 382.938 599.735 382.938 602.92C382.89 677.455 382.89 752.015 382.914 826.55C382.914 828.357 383.104 830.163 383.223 831.969C381.298 831.969 379.349 831.969 377.401 831.969Z" fill="url(#paint0_linear_123_927)"/>
<path d="M827.543 831.969C827.52 756.341 827.496 680.735 827.567 605.106C827.567 601.779 826.569 599.474 824.24 597.168C802.971 575.991 781.845 554.719 760.647 533.471C749.787 522.609 738.855 511.818 728.09 500.861C726.878 499.625 725.856 497.558 725.856 495.894C725.737 453.468 725.713 411.067 725.856 368.641C725.856 366.645 726.973 364.149 728.399 362.723C746.175 344.707 764.14 326.881 781.94 308.913C783.057 307.772 783.817 305.752 783.817 304.159C783.96 277.872 783.983 251.562 783.865 225.274C783.865 223.563 782.962 221.424 781.75 220.212C769.796 208.043 757.748 195.993 745.58 184.061C744.63 183.134 742.539 182.73 741.16 183.015C736.027 184.037 731.393 182.35 728.945 178.143C726.426 173.841 727.068 168.636 730.561 165.118C733.841 161.791 739.093 160.983 743.299 163.146C747.458 165.285 749.525 170.514 748.67 175.576C748.432 176.955 748.955 178.999 749.905 179.973C761.859 192.142 773.86 204.264 786.075 216.171C788.76 218.786 789.782 221.329 789.758 225.013C789.616 251.918 789.639 278.823 789.734 305.728C789.734 308.533 788.831 310.529 786.906 312.431C769.321 329.924 751.83 347.488 734.221 364.957C732.249 366.906 731.441 368.903 731.441 371.66C731.488 411.899 731.512 452.137 731.393 492.352C731.393 495.49 732.629 497.557 734.673 499.578C760.552 525.366 786.384 551.178 812.215 576.989C818.561 583.311 824.977 589.562 831.132 596.075C832.368 597.382 833.176 599.664 833.176 601.518C833.271 662.601 833.247 723.684 833.247 784.767C833.247 800.525 833.318 816.283 833.342 832.017C831.417 831.969 829.468 831.969 827.543 831.969Z" fill="url(#paint1_linear_123_927)"/>
<path d="M914.069 831.969C914.14 830.638 914.259 829.307 914.259 827.976C914.259 776.828 914.283 725.68 914.188 674.532C914.188 671.87 914.948 669.968 916.826 668.186C920.414 664.763 923.931 661.269 927.258 657.585C928.28 656.445 928.945 654.686 929.136 653.117C929.445 650.479 929.231 647.793 929.231 645.131C929.231 534.35 929.254 423.568 929.136 312.763C929.136 310.886 927.9 308.58 926.545 307.178C918.679 298.978 910.504 291.087 902.662 282.863C901.284 281.414 900.309 278.894 900.286 276.874C900.167 231.787 900.167 186.699 900.262 141.612C900.262 138.641 899.573 136.739 896.816 135.171C892.729 132.842 891.398 127.827 892.919 123.002C894.178 118.937 898.575 115.634 902.757 115.634C907.605 115.61 911.716 118.724 913.332 123.596C914.616 127.541 913.071 133.079 909.387 135.147C906.441 136.811 905.918 138.902 905.918 141.945C905.989 186.058 905.942 230.194 906.084 274.307C906.084 276.446 907.177 279.061 908.651 280.629C915.804 288.187 923.123 295.603 930.656 302.757C933.817 305.752 935.1 308.794 935.077 313.191C934.91 351.623 935.005 390.032 935.005 428.465C935.005 503.499 935.005 578.51 935.053 653.545C935.053 656.754 934.483 659.297 931.868 661.531C928.565 664.359 925.809 667.806 922.577 670.705C920.557 672.512 919.963 674.484 919.963 677.075C920.034 727.367 920.01 777.684 920.01 827.976C920.01 829.307 919.939 830.638 919.915 831.969C917.943 831.969 916.018 831.969 914.069 831.969Z" fill="url(#paint2_linear_123_927)"/>
<path d="M85.0752 831.969C85.1703 825.552 85.3604 819.135 85.3841 812.717C85.5505 762.306 85.6931 711.895 85.7168 661.483C85.7168 657.823 86.6674 655.137 89.3052 652.523C126.354 615.612 163.331 578.629 200.237 541.551C201.473 540.315 202.186 537.962 202.186 536.132C202.328 517.712 202.257 499.292 202.257 480.872C202.257 386.942 202.257 293.036 202.304 199.106C202.304 196.23 201.758 194.281 199.049 192.546C194.129 189.361 193.749 182.445 197.718 177.858C201.496 173.484 208.317 173.532 212.499 177.953C216.373 182.041 216.04 189.124 211.311 192.38C208.578 194.234 207.937 196.206 207.937 199.272C208.008 312.454 208.008 425.66 207.889 538.842C207.889 540.838 206.748 543.334 205.299 544.784C169.225 581.053 133.103 617.275 96.7672 653.283C92.8936 657.134 91.4203 660.842 91.4203 666.189C91.4203 720.475 91.1589 774.76 90.9925 829.07C90.9925 830.044 90.9212 830.995 90.8974 831.969C88.9488 831.969 87.0239 831.969 85.0752 831.969ZM211.002 184.631C208.459 182.682 206.986 180.662 205.275 180.448C202.97 180.163 200.902 181.779 200.688 184.56C200.522 186.842 203.231 189.623 205.394 188.933C207.129 188.339 208.507 186.604 211.002 184.631Z" fill="url(#paint3_linear_123_927)"/>
<path d="M432.675 831.969C432.77 830.638 432.984 829.331 432.984 828C433.008 772.003 432.961 716.007 433.103 660.01C433.103 657.776 434.291 654.995 435.884 653.379C453.731 635.268 471.791 617.371 489.686 599.283C491.04 597.929 492.086 595.575 492.086 593.674C492.205 538.889 492.205 484.105 492.062 429.32C492.062 427.324 490.945 424.876 489.52 423.426C472.005 405.671 454.301 388.131 436.787 370.376C435.432 368.998 434.505 366.573 434.482 364.648C434.386 338.337 434.505 312.05 434.41 285.739C434.41 284.171 433.222 282.127 431.939 281.176C427.97 278.181 425.974 273.665 427.257 269.149C428.635 264.348 432.675 261.235 437.69 261.116C441.872 261.021 446.578 264.467 447.861 268.603C449.358 273.356 447.766 278.276 443.298 280.867C440.827 282.317 440.114 283.957 440.137 286.666C440.232 311.884 440.137 337.078 440.304 362.295C440.328 364.292 441.516 366.74 442.965 368.19C460.123 385.588 477.352 402.914 494.748 420.075C497.148 422.451 497.98 424.852 497.956 428.061C497.885 466.35 497.908 504.664 497.908 542.954C497.908 560.661 497.837 578.344 497.932 596.051C497.956 598.57 497.172 600.305 495.413 602.064C477.424 619.961 459.529 637.977 441.516 655.827C439.401 657.918 438.712 660.057 438.712 662.886C438.759 717.67 438.759 772.455 438.735 827.24C438.735 828.808 438.569 830.377 438.474 831.946C436.549 831.969 434.624 831.969 432.675 831.969Z" fill="url(#paint4_linear_123_927)"/>
<path d="M218.154 831.969C218.273 830.282 218.487 828.618 218.487 826.931C218.487 749.115 218.606 671.323 218.297 593.508C218.273 586.068 220.412 581.006 225.759 575.991C237.308 565.177 248.264 553.721 259.314 542.407C260.407 541.266 261.168 539.27 261.168 537.677C261.263 506.042 261.263 474.408 261.144 442.773C261.12 439.493 261.952 437.068 264.352 434.763C272.099 427.276 279.561 419.504 287.332 412.041C289.423 410.045 289.922 407.929 289.922 405.291C289.899 384.922 289.946 364.577 289.946 344.208C289.946 314.76 289.922 285.312 289.78 255.863C289.78 254.39 288.782 252.441 287.617 251.514C283.672 248.424 281.724 243.908 283.102 239.82C284.457 235.827 288.71 232.69 292.727 232.761C297.337 232.832 301.068 235.661 302.422 240.153C303.682 244.36 301.852 248.472 297.955 251.443C296.743 252.369 295.65 254.342 295.65 255.816C295.555 306.465 295.578 357.138 295.673 407.787C295.673 410.71 294.818 412.825 292.774 414.822C285.241 422.19 277.874 429.7 270.317 437.045C267.988 439.303 266.871 441.703 266.895 445.007C266.99 476.404 266.919 507.777 267.061 539.175C267.061 542.003 266.182 544.023 264.281 545.901C251.995 558.094 239.78 570.382 227.446 582.527C225.117 584.809 224.119 587.185 224.119 590.513C224.214 669.541 224.19 748.545 224.19 827.572C224.19 829.022 224.048 830.472 223.977 831.922C222.028 831.969 220.103 831.969 218.154 831.969ZM297.313 241.626C296.006 240.747 294.366 238.798 292.584 238.632C290.136 238.418 288.045 240.628 288.663 243.1C289.067 244.716 291.206 246.76 292.845 247.045C295.341 247.473 296.814 245.334 297.313 241.626Z" fill="url(#paint5_linear_123_927)"/>
<path d="M1116.97 831.969C1116.9 830.282 1116.76 828.594 1116.76 826.907C1116.78 767.036 1116.8 707.141 1116.73 647.27C1116.73 645.583 1115.83 643.467 1114.64 642.232C1102.45 629.801 1090.19 617.442 1077.81 605.201C1075.03 602.468 1073.86 599.64 1073.86 595.647C1073.98 501.836 1073.96 408.001 1073.98 314.189C1073.98 311.813 1073.46 310.149 1071.34 308.675C1067.99 306.346 1066.83 301.379 1068.25 297.552C1069.77 293.488 1074 290.659 1078.11 290.945C1082.65 291.254 1086.5 294.438 1087.55 298.74C1088.5 302.733 1086.72 307.273 1083.06 309.365C1080.94 310.577 1079.61 311.646 1079.61 314.57C1079.71 405.362 1079.66 496.155 1079.64 586.948C1079.64 599.402 1079.75 599.307 1088.74 608.054C1099.57 618.63 1110.27 629.349 1120.84 640.164C1121.98 641.328 1122.36 643.658 1122.39 645.464C1122.51 665.096 1122.46 684.728 1122.46 704.384C1122.46 745.36 1122.46 786.335 1122.48 827.287C1122.48 828.856 1122.67 830.424 1122.77 831.969C1120.84 831.969 1118.89 831.969 1116.97 831.969ZM1073.31 301.141C1073.65 303.732 1075.31 305.681 1077.76 305.181C1079.37 304.849 1081.42 302.757 1081.8 301.117C1082.44 298.479 1080.16 296.863 1077.69 296.696C1074.95 296.53 1073.72 298.503 1073.31 301.141Z" fill="url(#paint6_linear_123_927)"/>
<path d="M754.824 831.969C754.776 824.934 754.729 817.922 754.729 810.887C754.752 742.412 754.752 673.938 754.871 605.439C754.871 601.898 753.897 599.378 751.354 596.859C719.653 565.39 688.046 533.779 656.368 502.263C654.111 500.005 652.875 497.747 652.899 494.372C653.065 472.078 653.041 449.76 652.97 427.466C652.97 424.757 653.398 422.594 655.632 420.764C657.771 419.005 659.553 416.818 661.573 414.917C664.329 412.326 666.397 409.831 666.112 405.386C665.755 399.706 671.482 395.594 677.328 396.331C683.056 397.067 686.81 402.415 685.694 408.238C684.6 413.919 678.683 417.698 672.956 415.773C670.175 414.846 668.963 415.963 667.015 417.413C660.052 422.499 658.293 429.059 658.578 437.496C659.196 455.892 658.697 474.336 658.887 492.756C658.911 494.776 659.909 497.296 661.311 498.722C693.726 531.308 726.259 563.75 758.721 596.312C759.767 597.358 760.48 599.236 760.48 600.733C760.551 642.921 760.527 685.085 760.503 727.272C760.48 761.332 760.48 795.391 760.456 829.45C760.456 830.282 760.575 831.137 760.646 831.969C758.697 831.969 756.749 831.969 754.824 831.969ZM675.855 401.916C673.122 402.154 671.649 403.77 671.673 406.361C671.696 408.809 673.241 410.544 675.712 410.567C678.303 410.591 680.014 409.023 680.109 406.313C680.18 403.532 678.422 402.273 675.855 401.916Z" fill="url(#paint7_linear_123_927)"/>
<path d="M843.537 831.969C843.513 756.222 843.49 680.45 843.561 604.702C843.561 601.351 842.753 598.879 840.258 596.407C815.543 571.879 790.971 547.232 766.351 522.585C758.913 515.146 751.403 507.778 744.084 500.196C742.872 498.96 741.897 496.868 741.897 495.157C741.755 452.85 741.731 410.544 741.897 368.261C741.897 366.431 743.442 364.244 744.844 362.818C759.031 348.629 773.337 334.558 787.596 320.44C800.595 307.582 813.499 294.676 826.593 281.913C828.803 279.75 829.54 277.563 829.54 274.569C829.469 194.566 829.492 114.564 829.492 34.5621C829.492 31.2821 829.397 28.026 829.54 24.746C829.659 21.9414 828.993 20.0638 825.999 18.8992C821.864 17.283 819.583 12.2917 820.462 8.13237C821.389 3.73534 825.167 0.384091 829.587 0.0275753C834.245 -0.328941 838.76 2.8084 840.044 7.3005C841.375 11.959 839.236 16.5224 835.053 19.0418C833.794 19.8023 832.629 21.68 832.51 23.1298C832.154 27.099 832.32 31.1158 832.32 35.1087C832.32 115.23 832.273 195.351 832.368 275.472C832.368 278.799 831.417 281.176 829.088 283.458C809.721 302.543 790.4 321.7 771.08 340.857C763.095 348.771 755.015 356.615 747.197 364.72C745.795 366.169 744.773 368.665 744.749 370.685C744.606 411.399 744.654 452.137 744.559 492.875C744.559 495.68 745.462 497.653 747.387 499.578C775.048 527.148 802.686 554.79 830.324 582.408C834.697 586.781 838.951 591.25 843.442 595.481C845.557 597.477 846.389 599.592 846.389 602.492C846.318 670.729 846.341 738.966 846.341 807.227C846.341 815.475 846.389 823.698 846.413 831.946C845.486 831.969 844.511 831.969 843.537 831.969ZM834.744 10.1526C834.507 7.58572 833.033 5.49415 830.491 5.96951C828.827 6.27849 826.641 8.27498 826.284 9.86742C825.738 12.1967 827.401 14.3358 830.205 14.4071C832.843 14.4784 834.388 12.9097 834.744 10.1526Z" fill="url(#paint8_linear_123_927)"/>
<path d="M959.888 831.969C959.769 830.781 959.579 829.569 959.579 828.38C959.531 791.303 959.507 754.201 959.602 717.124C959.602 715.531 960.458 713.535 961.599 712.394C979.089 694.782 996.675 677.289 1014.28 659.82C1016.28 657.847 1017.3 655.803 1017.3 652.832C1017.23 580.483 1017.25 508.134 1017.25 435.785C1017.25 433.979 1017.54 432.077 1017.11 430.366C1016.73 428.797 1015.88 427.015 1014.66 426.064C1010.89 423.117 1008.96 418.458 1010.32 414.299C1011.6 410.425 1015.61 407.478 1019.68 407.43C1024.03 407.383 1028.14 410.235 1029.47 414.204C1030.92 418.577 1029.21 422.903 1025.33 426.04C1024.15 426.991 1023.05 428.892 1023.05 430.366C1022.93 504.545 1022.93 578.7 1023.03 652.879C1023.03 657.11 1022.08 660.295 1018.92 663.385C1001.9 680.07 985.197 697.04 968.253 713.772C965.971 716.03 965.163 718.36 965.163 721.473C965.235 756.745 965.211 792.016 965.211 827.263C965.211 828.832 965.068 830.401 964.997 831.969C963.286 831.969 961.575 831.969 959.888 831.969ZM1024.31 418.862C1024.05 415.131 1022.82 413.277 1020.13 413.111C1017.42 412.944 1015.76 414.679 1015.64 417.246C1015.5 419.932 1017.35 421.81 1019.87 421.548C1021.58 421.382 1023.12 419.647 1024.31 418.862Z" fill="url(#paint9_linear_123_927)"/>
<path d="M1322.03 831.969C1322.06 798.766 1322.03 765.538 1322.2 732.335C1322.2 730.433 1323.27 728.176 1324.55 726.75C1327.64 723.375 1331.37 720.57 1334.46 717.195C1335.84 715.674 1337.03 713.321 1337.05 711.324C1337.19 636.052 1337.22 560.779 1337.17 485.507C1337.17 482.916 1337.72 480.967 1339.66 479.066C1346.89 472.102 1353.88 464.9 1361.03 457.889C1362.91 456.059 1363.81 454.371 1363.02 451.543C1361.69 446.671 1363.88 442.131 1368.06 439.802C1372.32 437.449 1377.88 438.209 1381.18 441.608C1384.36 444.912 1385.05 450.378 1382.8 454.443C1380.49 458.578 1375.9 460.385 1370.96 459.695C1369.37 459.481 1367.11 460.076 1365.97 461.169C1359.06 467.753 1352.28 474.503 1345.7 481.443C1344.27 482.94 1343.09 485.341 1343.06 487.337C1342.92 559.092 1342.73 630.847 1343.18 702.602C1343.25 713.154 1341.47 721.449 1332.32 727.272C1328.64 729.625 1327.69 733 1327.73 737.421C1327.95 768.937 1327.83 800.453 1327.83 831.969C1325.9 831.969 1323.96 831.969 1322.03 831.969Z" fill="url(#paint10_linear_123_927)"/>
<path d="M727.188 831.969C727.212 819.61 727.212 807.251 727.235 794.891C727.235 731.384 727.235 667.853 727.307 604.346C727.307 601.232 726.523 598.974 724.241 596.716C701.19 573.852 678.281 550.868 655.325 527.909C646.247 518.829 637.216 509.726 628.067 500.718C626.095 498.769 625.429 496.725 625.429 493.968C625.501 391.054 625.477 288.164 625.524 185.249C625.524 182.35 624.835 180.638 621.888 179.498C617.706 177.881 615.211 172.248 616.209 167.994C617.421 162.931 621.936 159.319 626.998 159.366C631.846 159.414 636.195 162.908 637.264 167.59C638.381 172.462 636.29 177.834 631.941 179.498C628.685 180.733 628.305 182.706 628.305 185.63C628.352 287.332 628.4 389.01 628.186 490.712C628.162 496.25 630.776 499.387 634.127 502.739C656.656 525.223 679.184 547.707 701.689 570.191C710.339 578.819 718.918 587.518 727.616 596.098C729.493 597.952 730.182 599.901 730.182 602.515C730.135 667.853 730.135 733.191 730.135 798.504C730.135 809.651 730.111 820.798 730.111 831.945C729.137 831.969 728.162 831.969 727.188 831.969Z" fill="url(#paint11_linear_123_927)"/>
<path d="M1308.94 831.969C1308.96 799.479 1309.01 767.012 1308.91 734.545C1308.89 730.838 1309.86 728.152 1312.69 725.704C1315.97 722.875 1318.99 719.714 1321.84 716.434C1322.82 715.317 1323.34 713.416 1323.34 711.871C1323.22 655.161 1323.03 598.451 1322.84 541.741C1322.7 504.046 1322.58 466.374 1322.29 428.678C1322.27 426.753 1321.32 424.376 1319.96 422.998C1307.35 410.14 1294.49 397.495 1281.87 384.637C1280.52 383.258 1279.38 380.905 1279.38 379.004C1279.26 307.13 1279.28 235.28 1279.28 163.407C1279.28 161.719 1279.21 160.008 1279.33 158.321C1279.66 154.185 1279.18 151.048 1274.65 148.718C1269.75 146.199 1269.51 138.641 1273.29 134.386C1277.05 130.156 1284.01 129.918 1287.88 133.911C1292.04 138.189 1292.04 145.771 1287.05 148.552C1282.46 151.095 1282.11 154.304 1282.11 158.796C1282.23 231.62 1282.16 304.468 1282.25 377.293C1282.25 379.289 1283.3 381.785 1284.7 383.235C1297.46 396.259 1310.46 409.07 1323.24 422.095C1324.43 423.307 1325.24 425.47 1325.24 427.205C1325.53 488.05 1325.69 548.872 1325.88 609.717C1326 644.014 1326.21 678.311 1326.17 712.608C1326.17 714.842 1324.79 717.409 1323.32 719.191C1320.65 722.424 1317.18 725.038 1314.52 728.271C1313.12 729.958 1311.96 732.454 1311.96 734.569C1311.79 767.06 1311.81 799.526 1311.81 832.017C1310.89 831.969 1309.91 831.969 1308.94 831.969ZM1285.6 142.063C1285.05 138.665 1283.37 136.858 1280.87 136.763C1278.64 136.692 1276.24 138.855 1276.5 141.018C1276.78 143.537 1278.26 145.629 1280.9 145.201C1282.58 144.939 1284.06 143.181 1285.6 142.063Z" fill="url(#paint12_linear_123_927)"/>
<path d="M741.73 831.969C741.754 820.941 741.778 809.913 741.778 798.885C741.778 734.284 741.754 669.683 741.873 605.059C741.873 601.327 740.756 598.689 738.166 596.146C718.156 576.276 698.266 556.335 678.327 536.418C666.35 524.439 654.302 512.531 642.515 500.362C640.97 498.77 640.114 495.87 640.114 493.564C639.972 451.02 640.019 408.476 640.019 365.932C640.019 318.539 639.996 271.146 640.114 223.753C640.114 221.828 641.326 219.76 642.419 218.049C643.513 216.338 645.057 214.888 646.602 213.533C649.858 210.657 651.854 207.876 650.19 202.957C648.717 198.631 652.139 193.64 656.44 191.857C661.17 189.908 666.017 191.168 669.131 195.161C672.101 198.987 672.22 204.074 669.416 208.019C666.754 211.751 661.241 213.723 657.153 211.751C654.325 210.396 653.042 211.513 650.903 213.129C644.131 218.239 642.705 224.728 642.728 232.975C643.014 319.894 642.871 406.788 643.014 493.707C643.014 495.68 644.344 498.08 645.794 499.554C668.608 522.585 691.54 545.497 714.425 568.409C723.646 577.655 732.961 586.805 742.039 596.17C743.465 597.62 744.558 600.115 744.558 602.112C744.701 645.012 744.653 687.937 744.653 730.838C744.653 762.948 744.701 795.082 744.725 827.192C744.725 828.761 744.653 830.329 744.606 831.922C743.679 831.969 742.705 831.969 741.73 831.969Z" fill="url(#paint13_linear_123_927)"/>
<path d="M943.157 831.969C943.133 793.679 943.086 755.39 943.157 717.1C943.157 715.507 944.107 713.582 945.248 712.418C958.223 699.203 971.365 686.178 984.317 672.939C985.742 671.466 987.002 669.041 987.002 667.045C987.144 635.909 987.121 604.773 987.002 573.614C987.002 572.235 986.146 570.596 985.196 569.55C982.083 566.175 978.518 563.204 975.595 559.71C974.193 558.046 973.076 555.551 973.029 553.388C972.767 541.646 972.815 529.881 972.933 518.14C972.957 515.787 972.292 514.528 970.177 513.292C964.735 510.107 963.642 503.428 967.373 498.532C970.961 493.85 977.876 493.279 982.13 497.343C986.622 501.645 986.55 508.229 981.56 512.293C979.231 514.195 978.471 516.144 978.494 519.067C978.661 529.739 978.423 540.387 978.661 551.058C978.708 553.102 979.849 555.408 981.132 557.072C983.033 559.544 985.315 561.825 987.786 563.727C991.921 566.912 992.99 570.809 992.967 575.967C992.729 607.222 992.895 638.5 992.777 669.754C992.777 671.442 991.874 673.557 990.662 674.769C977.948 687.675 965.115 700.486 952.211 713.202C949.716 715.65 948.646 718.193 948.67 721.806C948.813 756.935 948.765 792.087 948.765 827.239C948.765 828.808 948.908 830.377 948.979 831.945C947.03 831.969 945.105 831.969 943.157 831.969ZM979.587 504.26C979.374 501.717 977.591 500.386 975.048 500.433C972.601 500.481 970.913 502.002 971.009 504.569C971.104 507.183 972.648 508.942 975.357 508.918C977.995 508.894 979.492 507.278 979.587 504.26Z" fill="url(#paint14_linear_123_927)"/>
<path d="M1132.96 831.969C1133.08 830.163 1133.27 828.357 1133.27 826.55C1133.3 725.228 1133.3 623.907 1133.3 522.585C1133.3 519.685 1132.99 516.738 1133.37 513.886C1133.6 512.151 1134.48 510.154 1135.72 508.918C1151.9 492.59 1167.99 476.166 1184.56 460.242C1189.9 455.085 1192.28 449.974 1192.23 442.345C1191.9 375.819 1192.02 309.269 1192.09 242.744C1192.09 240.058 1190.97 238.988 1188.76 237.919C1183.32 235.281 1181.28 229.22 1183.72 223.729C1185.93 218.738 1191.66 216.361 1197.17 218.168C1202.24 219.832 1205.56 225.655 1203.71 231.05C1202.81 233.641 1200.52 236.184 1198.17 237.681C1195.91 239.131 1194.75 240.462 1194.92 243.053C1195.01 244.502 1194.96 245.952 1194.96 247.402C1194.96 315.021 1195.01 382.664 1194.87 450.283C1194.87 452.28 1193.7 454.752 1192.28 456.202C1174.24 474.479 1156.04 492.59 1138 510.844C1136.88 511.961 1136.22 514.028 1136.22 515.645C1136.15 602.421 1136.17 689.197 1136.19 775.973C1136.19 793.18 1136.19 810.388 1136.17 827.596C1136.17 829.046 1136 830.472 1135.91 831.922C1134.89 831.969 1133.94 831.969 1132.96 831.969Z" fill="url(#paint15_linear_123_927)"/>
<path d="M523.576 831.969C523.6 789.544 523.647 747.142 523.576 704.717C523.576 701.627 524.479 699.488 526.594 697.373C548.79 675.292 570.915 653.093 593.158 631.061C595.511 628.731 596.437 626.402 596.437 623.122C596.342 592.105 596.414 561.065 596.295 530.048C596.295 528.336 595.392 526.221 594.203 525.009C581.299 511.913 568.182 499.007 555.325 485.887C553.899 484.438 552.877 481.918 552.877 479.898C552.735 438.827 552.782 397.733 552.83 356.662C552.83 353.976 552.26 351.909 550.192 349.912C542.017 341.997 533.985 333.916 526.119 325.717C524.788 324.338 523.814 322.009 523.814 320.107C523.671 289.091 523.719 258.074 523.719 227.033C523.719 224.965 523.362 223.539 521.01 222.588C516.637 220.83 514.26 215.791 515.282 211.584C516.494 206.498 520.13 203.527 525.073 203.527C529.921 203.527 533.605 206.426 534.84 211.18C535.981 215.625 533.771 220.354 529.184 222.541C527.26 223.444 526.547 224.561 526.547 226.7C526.618 257.717 526.594 288.758 526.713 319.775C526.713 321.153 527.45 322.865 528.424 323.863C536.504 332.205 544.702 340.429 552.949 348.629C554.874 350.53 555.8 352.479 555.8 355.307C555.705 396.259 555.753 437.235 555.682 478.187C555.682 481.062 556.466 483.154 558.557 485.222C570.938 497.438 583.106 509.893 595.534 522.062C598.362 524.819 599.479 527.6 599.455 531.593C599.265 562.61 599.289 593.65 599.432 624.667C599.455 627.923 598.315 630.062 596.128 632.225C573.695 654.567 551.333 676.956 529.066 699.464C527.735 700.819 526.808 703.219 526.784 705.145C526.642 747.427 526.642 789.734 526.618 832.017C525.525 831.969 524.55 831.969 523.576 831.969ZM529.422 213.01C528.875 210.8 527.426 208.708 524.836 209.397C523.196 209.849 521.105 211.893 520.867 213.462C520.534 215.815 522.507 217.835 525.121 217.787C527.735 217.74 529.161 215.957 529.422 213.01Z" fill="url(#paint16_linear_123_927)"/>
<path d="M58.1761 831.969C58.2712 830.9 58.4613 829.806 58.4613 828.737C58.485 787.286 58.5326 745.835 58.4375 704.408C58.4375 702.815 57.5582 700.843 56.4176 699.678C48.5753 691.621 40.6381 683.635 32.5582 675.792C30.1105 673.415 29.1124 670.919 29.1362 667.473C29.2787 646.272 29.255 625.047 29.1599 603.847C29.1362 600.186 30.2293 597.524 32.8909 594.91C45.4147 582.622 57.7959 570.192 70.082 557.642C71.5079 556.192 72.6486 553.697 72.6486 551.7C72.7674 453.658 72.7436 355.617 72.8149 257.575C72.8149 254.913 72.102 253.534 69.5592 252.417C65.1153 250.492 62.62 244.978 63.6894 240.652C64.9489 235.542 69.1077 232.143 74.1219 232.119C79.0411 232.072 83.2712 235.257 84.6258 240.034C85.9566 244.74 83.9128 250.23 79.2313 252.251C75.8805 253.701 75.6429 255.816 75.6429 258.787C75.6904 356.829 75.7141 454.871 75.5953 552.912C75.5953 554.909 74.4784 557.405 73.0525 558.854C60.3624 571.832 47.4109 584.595 34.7208 597.596C33.3187 599.046 32.2968 601.565 32.2968 603.585C32.1305 624.905 32.1305 646.248 32.2968 667.568C32.3206 669.588 33.2949 672.108 34.697 673.557C42.563 681.734 50.7617 689.577 58.6514 697.729C60.101 699.227 61.3605 701.651 61.3605 703.647C61.4793 744.742 61.4318 785.812 61.3843 826.907C61.3843 828.594 61.2179 830.282 61.1466 831.969C60.1248 831.969 59.1504 831.969 58.1761 831.969Z" fill="url(#paint17_linear_123_927)"/>
<path d="M566.469 831.969C566.516 813.549 566.516 795.129 566.754 776.733C566.778 774.713 567.8 772.193 569.202 770.767C589.092 750.66 609.126 730.647 629.206 710.73C631.535 708.425 632.486 706.048 632.486 702.744C632.367 650.384 632.367 598.047 632.415 545.687C632.415 542.811 631.63 540.767 629.539 538.699C615.685 525.057 601.996 511.248 588.189 497.557C586.146 495.537 585.266 493.469 585.266 490.546C585.361 431.293 585.385 372.04 585.243 312.763C585.243 310.624 584.126 307.986 582.652 306.441C575.048 298.479 567.11 290.849 559.387 283.006C557.771 281.366 556.488 281.081 554.349 282.174C549.834 284.503 544.843 283.291 541.992 279.536C539.116 275.757 539.235 270.576 542.324 266.749C544.986 263.445 550.167 262.328 554.23 264.23C558.437 266.179 560.67 270.599 559.553 275.4C559.007 277.73 559.577 279.203 561.241 280.819C568.94 288.33 576.426 296.078 584.221 303.494C587.191 306.322 588.332 309.293 588.332 313.358C588.213 370.067 588.38 426.777 588.071 483.487C588.023 490.641 590.043 495.632 595.129 500.505C607.724 512.507 619.82 525.033 632.201 537.273C634.316 539.365 635.29 541.551 635.29 544.617C635.219 598.19 635.29 651.739 635.195 705.311C635.195 707.141 634.363 709.447 633.104 710.73C612.976 731.099 592.752 751.373 572.41 771.552C570.295 773.643 569.463 775.663 569.463 778.539C569.511 796.341 569.416 814.167 569.368 831.969C568.417 831.969 567.443 831.969 566.469 831.969ZM550.571 277.658C552.971 277.326 554.278 275.519 554.183 273C554.088 270.504 552.424 269.007 549.881 269.054C547.101 269.102 545.58 271.075 545.628 273.523C545.651 276.042 547.434 277.611 550.571 277.658Z" fill="url(#paint18_linear_123_927)"/>
<path d="M1367.11 831.969C1367.14 820.466 1367.18 808.938 1367.18 797.435C1367.18 732.478 1367.18 667.497 1367.13 602.539C1367.13 599.782 1367.9 597.762 1369.84 595.789C1382.04 583.359 1394.08 570.738 1406.3 558.308C1408.89 555.669 1410.2 553.007 1410.17 549.086C1410.03 499.744 1410.05 450.426 1410.12 401.084C1410.12 398.303 1409.32 396.331 1407.34 394.405C1399.38 386.633 1391.64 378.647 1383.65 370.875C1381.56 368.831 1380.82 366.692 1380.82 363.84C1380.92 338.504 1380.87 313.167 1380.92 287.855C1380.92 284.67 1381.04 282.055 1377.19 280.297C1372.74 278.276 1371.27 273.166 1372.72 268.817C1374.15 264.562 1378.4 261.639 1382.77 261.924C1387.19 262.209 1391.18 265.418 1392.02 269.363C1393.09 274.426 1390.92 278.609 1386.46 281.2C1385.2 281.937 1383.89 283.862 1383.89 285.264C1383.75 311.575 1383.72 337.862 1383.87 364.173C1383.87 365.86 1385.01 367.881 1386.24 369.14C1394.18 377.269 1402.35 385.16 1410.24 393.36C1411.67 394.833 1412.86 397.281 1412.86 399.278C1413 449.951 1412.95 500.6 1413 551.272C1413 554.291 1412.12 556.43 1409.98 558.593C1397.67 571.095 1385.58 583.81 1373.29 596.36C1370.91 598.784 1369.96 601.28 1369.96 604.726C1370.06 679.143 1370.06 753.56 1370.06 827.976C1370.06 829.307 1370.01 830.638 1370.01 831.969C1369.06 831.969 1368.09 831.969 1367.11 831.969ZM1377.95 272.025C1378.28 274.64 1379.73 276.351 1382.42 276.232C1385.05 276.137 1386.74 274.331 1386.65 271.74C1386.55 269.363 1384.91 267.605 1382.39 267.652C1379.78 267.723 1378.16 269.245 1377.95 272.025Z" fill="url(#paint19_linear_123_927)"/>
<path d="M1162.05 831.969C1162.05 813.43 1162.05 794.892 1162.05 776.376C1162.05 704.764 1162.03 633.176 1162.1 561.564C1162.1 558.926 1160.91 557.737 1159.03 556.406C1155.25 553.72 1153.92 548.872 1155.51 544.76C1157.11 540.624 1161.46 537.891 1165.85 538.295C1170.25 538.699 1173.96 542.027 1174.79 546.59C1175.57 550.845 1173.96 554.386 1170.41 556.596C1168.16 557.999 1167.73 559.639 1167.73 561.968C1167.78 626.069 1167.82 690.147 1167.82 754.249C1167.82 779.443 1167.71 804.636 1167.66 829.854C1167.66 830.567 1167.8 831.304 1167.87 832.017C1165.92 831.969 1163.97 831.969 1162.05 831.969ZM1169.49 549.585C1168.82 546.115 1167.68 544.095 1164.92 544.071C1162.45 544.047 1160.84 545.521 1160.55 548.04C1160.31 550.227 1162.71 553.055 1164.73 552.508C1166.59 552.033 1168.11 550.464 1169.49 549.585Z" fill="url(#paint20_linear_123_927)"/>
<path d="M1249.31 831.969C1249.24 819.61 1249.15 807.251 1249.1 794.892C1249.07 789.069 1249.26 783.246 1248.98 777.446C1248.81 774.19 1250.03 771.98 1252.31 769.864C1260.58 762.235 1268.68 754.439 1276.97 746.857C1279.11 744.884 1279.99 742.84 1279.97 739.917C1279.87 699.559 1279.94 659.202 1279.83 618.844C1279.8 614.804 1280.51 611.405 1283.79 609.004C1292.71 602.516 1294.42 593.769 1294.2 583.121C1293.56 550.892 1293.99 518.639 1293.87 486.41C1293.87 484.699 1292.92 482.584 1291.71 481.348C1279.07 468.513 1266.33 455.774 1253.47 443.153C1251.38 441.109 1250.57 439.041 1250.57 436.165C1250.64 400.894 1250.62 365.623 1250.67 330.352C1250.67 327.642 1250.48 325.693 1247.32 324.481C1243.13 322.865 1241.23 317.755 1242.28 313.144C1243.21 309.032 1247.48 305.586 1251.81 305.49C1256.11 305.395 1260.41 308.604 1261.62 312.787C1262.91 317.16 1261 322.033 1256.85 324.196C1254.42 325.455 1253.45 326.929 1253.45 329.805C1253.57 365.195 1253.47 400.585 1253.59 435.975C1253.59 437.663 1254.52 439.754 1255.71 440.99C1268.35 453.849 1281.11 466.588 1293.92 479.304C1295.82 481.205 1296.86 483.154 1296.86 485.959C1296.79 522.918 1296.84 559.9 1296.75 596.859C1296.75 598.38 1295.96 600.163 1294.96 601.351C1292.23 604.584 1289.4 607.768 1286.27 610.573C1283.44 613.092 1282.68 616.016 1282.73 619.605C1282.84 633.295 1282.82 646.985 1282.82 660.699C1282.82 687.604 1282.77 714.509 1282.87 741.414C1282.87 744.219 1282.01 746.216 1280.02 748.069C1271.41 756.055 1262.86 764.089 1254.42 772.241C1253.16 773.453 1252.02 775.497 1252 777.161C1251.86 794.844 1251.95 812.551 1251.97 830.258C1251.97 830.852 1252.12 831.447 1252.21 832.041C1251.24 831.969 1250.29 831.969 1249.31 831.969ZM1257.94 315.616C1255.37 313.643 1253.95 311.765 1252.26 311.48C1249.86 311.052 1247.89 312.55 1247.74 315.402C1247.63 317.897 1249.88 320.417 1252.21 319.799C1253.95 319.3 1255.35 317.564 1257.94 315.616Z" fill="url(#paint21_linear_123_927)"/>
<path d="M204.349 831.969C204.373 752.823 204.491 673.676 204.206 594.53C204.182 586.829 206.345 581.553 211.953 576.347C223.574 565.581 234.506 554.101 245.58 542.764C246.768 541.551 247.647 539.412 247.647 537.701C247.742 506.542 247.766 475.406 247.6 444.246C247.576 440.325 248.36 437.187 251.521 434.739C252.947 433.646 253.897 431.935 255.347 430.913C261.145 426.872 262.215 421.334 262.072 414.584C261.692 395.071 262.025 375.558 261.835 356.044C261.811 354.024 260.765 351.576 259.363 350.079C253.802 344.184 247.885 338.623 242.182 332.847C240.803 331.445 239.663 331.183 237.738 331.968C232.89 333.94 228.303 332.3 225.404 327.903C223.17 324.528 223.669 319.228 226.473 316.043C229.491 312.621 234.957 311.789 239.116 314.166C243.275 316.542 245.105 320.821 243.489 325.669C242.609 328.284 243.108 329.829 245.033 331.682C250.974 337.387 256.797 343.21 262.453 349.199C263.712 350.53 264.71 352.717 264.71 354.523C264.876 377.198 264.924 399.848 264.781 422.523C264.781 424.329 263.688 426.444 262.429 427.87C258.769 432.03 253.279 435.31 251.331 440.087C249.335 445.007 250.547 451.282 250.523 456.962C250.475 484.105 250.57 511.271 250.404 538.414C250.38 540.529 249.216 543.144 247.719 544.665C235.528 557.119 223.17 569.431 210.765 581.648C208.27 584.096 207.082 586.568 207.105 590.204C207.201 670.8 207.177 751.421 207.177 832.017C206.274 831.969 205.299 831.969 204.349 831.969ZM238.403 324.196C238.356 320.131 236.621 318.539 234.125 318.468C231.606 318.42 229.729 319.917 229.777 322.77C229.824 325.55 231.678 327.262 234.149 326.929C235.884 326.691 237.405 324.885 238.403 324.196Z" fill="url(#paint22_linear_123_927)"/>
<path d="M495.224 831.969C495.247 784.458 495.247 736.946 495.39 689.434C495.39 687.414 496.412 684.895 497.814 683.469C525.262 655.803 552.876 628.28 580.347 600.662C581.393 599.616 582.082 597.738 582.106 596.241C582.225 574.303 582.248 552.366 582.13 530.428C582.13 528.598 581.179 526.34 579.896 525.033C557.272 502.192 534.482 479.518 511.882 456.653C510.385 455.132 509.292 452.494 509.268 450.378C509.102 424.686 509.173 398.993 509.245 373.3C509.245 370.78 508.746 369.14 506.25 367.809C501.901 365.48 500.238 360.679 501.64 356.33C503.09 351.838 507.486 348.724 511.811 349.152C516.754 349.627 520.366 352.978 521.198 357.827C521.935 362.176 519.344 366.764 514.805 368.451C512.714 369.235 512.025 370.353 512.049 372.468C512.073 398.517 512.025 424.591 512.144 450.64C512.144 451.995 513.071 453.658 514.069 454.657C527.876 468.585 541.754 482.394 555.609 496.274C564.853 505.52 574.097 514.765 583.199 524.13C584.245 525.199 584.981 527.077 585.005 528.598C585.124 551.629 585.171 574.66 585.005 597.691C584.981 599.521 583.437 601.66 582.011 603.11C573.052 612.284 563.902 621.292 554.848 630.371C536.621 648.601 518.37 666.784 500.285 685.109C499.026 686.368 498.265 688.697 498.265 690.551C498.147 736.114 498.17 781.701 498.17 827.263C498.17 828.832 498.147 830.424 498.147 831.993C497.149 831.969 496.174 831.969 495.224 831.969ZM512.429 354.737C508.627 355.189 506.559 356.71 507.034 359.229C507.343 360.869 509.34 362.818 511.027 363.412C513.213 364.173 516.089 361.273 515.447 359.039C514.924 357.257 513.261 355.854 512.429 354.737Z" fill="url(#paint23_linear_123_927)"/>
<path d="M989.71 831.969C989.687 789.068 989.639 746.168 989.758 703.267C989.758 701.389 991.065 699.131 992.443 697.729C1004.82 685.132 1017.35 672.654 1029.92 660.224C1032.03 658.108 1032.91 655.993 1032.89 652.903C1032.8 599.212 1032.99 545.544 1032.72 491.853C1032.7 484.96 1033.96 479.589 1039.64 475.572C1046.01 471.033 1047.67 464.972 1047.53 457.128C1047.03 428.06 1047.34 398.969 1047.22 369.877C1047.22 368.356 1046.55 366.455 1045.51 365.385C1039.83 359.443 1033.94 353.715 1028.16 347.868C1026.76 346.466 1025.5 345.895 1023.38 346.704C1018.61 348.534 1013.83 346.656 1011.15 342.354C1008.89 338.741 1009.79 333.132 1013.09 329.995C1016.35 326.905 1021.48 326.358 1025.19 328.688C1029.33 331.302 1031.04 336.246 1029.11 341.071C1028.28 343.138 1028.71 344.422 1030.18 345.848C1036.24 351.742 1042.32 357.637 1048.17 363.721C1049.36 364.957 1050.17 367.12 1050.19 368.855C1050.31 400.728 1050.24 432.6 1050.33 464.473C1050.33 467.586 1049.81 470.082 1047.24 472.102C1045.27 473.671 1043.82 475.905 1041.83 477.426C1036.83 481.229 1035.65 486.077 1035.67 492.257C1035.91 542.668 1035.79 593.08 1035.79 643.491C1035.79 645.915 1035.48 648.387 1035.88 650.74C1036.86 656.706 1033.98 660.533 1029.9 664.454C1018.06 675.863 1006.54 687.604 995.034 699.345C993.75 700.653 992.705 702.863 992.705 704.669C992.586 747.095 992.633 789.496 992.657 831.922C991.635 831.969 990.661 831.969 989.71 831.969ZM1024.31 338.836C1024.07 335.081 1023.03 333.203 1020.18 333.061C1017.42 332.942 1015.76 334.582 1015.61 337.173C1015.47 339.835 1017.32 341.784 1019.84 341.546C1021.55 341.403 1023.12 339.597 1024.31 338.836Z" fill="url(#paint24_linear_123_927)"/>
<path d="M622.483 831.969C622.554 816.592 623.291 801.166 622.435 785.812C621.889 775.877 625.168 769.128 632.369 762.615C643.752 752.347 654.28 741.105 664.974 730.077C666.209 728.817 666.827 726.417 666.827 724.563C666.946 695.59 667.136 666.617 666.732 637.668C666.613 630.205 667.873 624.216 674.194 619.795C675.549 618.844 676.452 617.228 677.806 616.23C680.088 614.542 680.539 612.665 679.85 609.931C678.852 605.962 681.656 601.018 685.53 599.141C690.021 596.954 694.988 597.715 698.267 601.113C701.309 604.275 702.046 610.24 699.883 613.996C697.626 617.917 692.493 620.532 688.453 619.034C685.078 617.775 683.391 619.272 680.896 621.126C673.98 626.307 672.34 632.843 672.483 641.233C672.982 669.826 672.673 698.442 672.768 727.035C672.768 729.673 671.96 731.503 670.059 733.381C656.965 746.31 643.966 759.311 631.109 772.479C629.612 774 628.59 776.686 628.567 778.825C628.329 796.508 628.377 814.215 628.329 831.898C626.357 831.969 624.408 831.969 622.483 831.969Z" fill="url(#paint25_linear_123_927)"/>
<path d="M870.438 831.969C870.486 830.876 870.581 829.783 870.581 828.713C870.581 734.522 870.557 640.354 870.628 546.162C870.628 542.882 869.678 540.601 867.301 538.271C855.182 526.459 843.347 514.314 831.227 502.477C828.613 499.934 827.877 497.225 827.9 493.755C828.019 477.402 827.924 461.026 828.067 444.674C828.09 441.37 827.14 438.922 824.835 436.641C813.499 425.399 802.235 414.061 790.994 402.724C789.378 401.084 788 400.561 785.624 401.678C781.298 403.699 775.619 401.75 773.005 397.947C770.082 393.669 770.581 388.012 774.193 384.233C777.734 380.549 782.986 379.86 787.477 382.545C791.755 385.088 793.727 390.294 791.874 395.118C790.899 397.662 791.398 399.254 793.347 401.155C805.253 412.849 817.135 424.567 828.708 436.569C830.348 438.281 830.823 441.632 830.871 444.246C831.037 459.767 831.085 475.287 830.8 490.784C830.704 495.751 832.107 499.292 835.766 502.81C847.791 514.385 859.459 526.316 871.151 538.224C872.363 539.46 873.385 541.528 873.385 543.215C873.48 638.975 873.48 734.736 873.456 830.496C873.456 830.971 873.385 831.47 873.361 831.945C872.387 831.969 871.413 831.969 870.438 831.969Z" fill="url(#paint26_linear_123_927)"/>
<path d="M71.2689 831.969C71.1976 830.282 71.055 828.594 71.055 826.907C71.0313 771.266 71.0788 715.626 70.96 659.986C70.96 656.991 72.4333 655.327 74.2157 653.521C91.9914 635.743 109.743 617.941 127.566 600.21C129.42 598.356 130.109 596.431 130.086 593.793C129.99 557.547 129.99 521.301 130.109 485.055C130.109 483.368 131.084 481.276 132.296 480.04C140.304 471.817 148.479 463.783 156.63 455.702C158.555 453.777 159.648 451.899 159.601 448.833C159.387 428.964 159.553 409.07 159.577 389.2C159.577 386.324 159.767 383.829 155.965 382.331C151.735 380.668 150 374.94 151.378 370.828C152.875 366.359 157.105 363.388 161.621 363.65C165.993 363.911 169.891 367.31 170.841 371.683C171.816 376.199 169.701 380.953 165.328 382.807C163.142 383.734 162.452 384.898 162.476 387.132C162.524 408.096 162.595 429.082 162.381 450.046C162.357 452.303 161.24 455.061 159.696 456.677C151.759 464.948 143.417 472.863 135.432 481.11C134.078 482.489 133.056 484.841 133.056 486.767C132.937 523.012 133.056 559.258 132.866 595.504C132.842 597.905 131.155 600.804 129.373 602.611C114.781 617.442 99.9762 632.083 85.2423 646.795C84.2917 647.722 83.5075 648.886 82.4381 649.623C75.2138 654.543 73.6453 661.269 73.7166 669.85C74.1206 722.21 73.9305 774.57 73.9305 826.954C73.9305 828.642 74.1206 830.329 74.2157 832.017C73.1938 831.969 72.2432 831.969 71.2689 831.969ZM160.741 378.172C163.237 378.196 165.851 375.7 165.138 373.442C164.639 371.874 162.738 369.948 161.24 369.711C158.912 369.33 156.725 370.899 156.702 373.68C156.678 376.271 158.246 377.863 160.741 378.172Z" fill="url(#paint27_linear_123_927)"/>
<path d="M1220.94 831.969C1220.96 772.003 1220.98 712.037 1220.98 652.048C1220.98 644.893 1220.82 637.739 1221.1 630.609C1221.2 628.565 1222.13 626.093 1223.53 624.643C1230.61 617.204 1237.9 609.955 1245.32 602.848C1247.43 600.804 1248.36 598.998 1247.91 595.956C1247.17 591.036 1249.31 587.732 1253.64 585.736C1257.7 583.882 1261.62 584.642 1264.92 587.898C1267.97 590.893 1268.58 595.552 1266.52 599.616C1264.71 603.157 1260.39 605.605 1256.51 604.607C1253.3 603.775 1251.36 604.774 1249.22 606.984C1242.66 613.758 1235.81 620.27 1229.33 627.115C1227.92 628.613 1226.81 631.084 1226.81 633.128C1226.69 699.393 1226.71 765.681 1226.71 831.945C1224.83 831.969 1222.89 831.969 1220.94 831.969ZM1259.08 589.99C1255.87 590.275 1253.49 592.153 1253.45 594.458C1253.4 596.93 1254.61 598.641 1257.13 599.093C1259.48 599.521 1262.45 597.287 1262.03 594.981C1261.69 593.199 1260.1 591.654 1259.08 589.99Z" fill="url(#paint28_linear_123_927)"/>
<path d="M0 831.969C0.0712928 830.52 0.213879 829.07 0.213879 827.62C0.237643 733.072 0.237643 638.524 0.380228 543.976C0.380228 542.074 1.3308 539.674 2.6616 538.319C15.1378 525.485 27.7567 512.793 40.423 500.172C42.7282 497.866 43.75 495.585 43.75 492.233C43.6312 452.47 43.6312 412.707 43.7025 372.967C43.7025 370.59 43.0846 369.259 40.827 368.19C36.2643 366.051 34.1017 361.25 35.2662 356.781C36.4069 352.36 40.6132 349.128 45.1521 349.152C49.5961 349.176 53.6835 352.337 54.7767 356.615C55.9886 361.321 54.1113 365.789 49.4772 368.118C47.1483 369.283 46.5067 370.709 46.5067 373.205C46.578 413.681 46.6018 454.181 46.4829 494.658C46.4829 496.464 45.5324 498.722 44.2729 500.029C31.7966 512.888 19.2491 525.675 6.48765 538.248C3.87358 540.839 3.08936 543.405 3.08936 546.875C3.13688 640.211 3.11312 733.547 3.11312 826.883C3.11312 828.571 2.97054 830.258 2.89924 831.946C1.94867 831.969 0.974336 831.969 0 831.969ZM45.1046 354.785C42.7282 355.26 40.7557 356.33 40.8033 359.134C40.827 361.82 42.6331 363.793 45.0808 363.341C46.6968 363.056 48.7881 360.988 49.1683 359.372C49.7862 356.9 47.8375 355.26 45.1046 354.785Z" fill="url(#paint29_linear_123_927)"/>
<path d="M189.069 831.969C189.021 830.638 188.95 829.307 188.95 827.976C188.95 748.972 188.974 669.969 188.831 590.941C188.831 585.902 190.281 582.408 193.869 578.938C206.155 567.078 218.156 554.956 230.086 542.74C231.488 541.29 232.557 538.794 232.557 536.798C232.7 496.678 232.652 456.582 232.7 416.462C232.7 414.347 232.391 412.992 230.062 412.017C225.357 410.045 223.289 405.481 224.359 400.728C225.404 396.022 229.064 393.003 233.912 392.861C238.118 392.718 242.491 395.808 243.631 399.682C245.057 404.554 243.346 409.641 238.712 411.685C235.789 412.968 235.528 414.727 235.528 417.294C235.552 457.271 235.504 497.272 235.599 537.25C235.599 540.292 234.72 542.478 232.581 544.594C219.939 557.072 207.438 569.692 194.796 582.194C192.657 584.286 191.73 586.449 191.73 589.515C191.825 669.255 191.802 748.996 191.802 828.713C191.802 829.806 191.897 830.876 191.968 831.969C191.017 831.969 190.043 831.969 189.069 831.969ZM233.983 407.216C236.455 406.931 238.237 405.576 238.332 402.914C238.427 400.181 236.55 398.303 234.102 398.755C232.486 399.064 230.371 401.037 229.967 402.653C229.349 405.125 231.179 406.86 233.983 407.216Z" fill="url(#paint30_linear_123_927)"/>
<path d="M362.856 831.969C362.951 830.52 363.141 829.093 363.141 827.644C363.165 783.887 363.141 740.131 363.141 696.398C363.141 665.976 363.094 635.577 363.212 605.154C363.236 601.494 362.333 598.808 359.6 596.217C351.806 588.802 344.225 581.149 336.787 573.376C335.456 571.974 334.434 569.621 334.434 567.696C334.291 540.791 334.386 513.886 334.22 486.981C334.196 484.961 333.127 482.489 331.701 480.991C324.857 473.837 317.656 466.992 310.717 459.933C309.03 458.222 307.58 457.842 305.275 458.626C300.57 460.242 295.318 458.174 292.989 454.134C290.28 449.428 291.207 443.771 295.27 440.277C299.096 436.997 304.705 436.807 308.673 439.802C312.666 442.82 314.234 448.311 311.882 452.779C310.622 455.203 311.359 456.463 313.022 458.079C320.342 465.281 327.685 472.459 334.767 479.898C336.169 481.372 337.167 483.867 337.167 485.911C337.309 512.697 337.214 539.484 337.357 566.246C337.357 568.266 338.426 570.738 339.828 572.188C347.528 580.198 355.608 587.875 363.284 595.908C364.781 597.453 365.922 600.068 365.945 602.207C366.088 677.099 366.064 751.991 366.04 826.907C366.04 828.594 365.85 830.282 365.755 831.969C364.805 831.969 363.83 831.969 362.856 831.969Z" fill="url(#paint31_linear_123_927)"/>
<path d="M887.17 831.969C887.146 778.04 887.146 724.111 887.122 670.182C887.122 628.85 887.098 587.518 887.17 546.21C887.17 543.073 886.314 540.862 884.033 538.628C871.152 525.984 858.415 513.22 845.82 500.291C844.418 498.865 843.586 496.25 843.562 494.182C843.42 473.576 843.467 452.969 843.515 432.386C843.515 429.606 843.324 427.514 840.14 426.04C835.744 424.02 833.938 418.958 835.173 414.727C836.385 410.568 840.663 407.311 844.917 407.288C849.242 407.264 853.258 410.401 854.541 414.774C855.825 419.171 854.114 423.973 849.67 426.112C846.77 427.514 846.343 429.32 846.343 432.077C846.414 452.684 846.319 473.291 846.438 493.873C846.438 495.561 847.388 497.653 848.576 498.865C861.385 511.889 874.313 524.819 887.288 537.701C889.237 539.626 890.045 541.599 890.045 544.404C889.974 639.546 889.974 734.664 889.974 829.806C889.974 830.543 889.998 831.256 890.021 831.993C889.118 831.969 888.144 831.969 887.17 831.969ZM849.67 416.486C848.363 415.511 846.818 413.586 844.988 413.253C842.374 412.778 840.758 414.988 840.663 417.484C840.592 419.932 842.231 421.572 844.703 421.715C847.412 421.857 848.838 420.122 849.67 416.486Z" fill="url(#paint32_linear_123_927)"/>
<path d="M799.907 831.969C799.86 815.237 799.764 798.528 799.764 781.796C799.788 730.766 799.836 679.737 799.883 628.708C799.883 620.342 799.812 611.975 799.931 603.609C799.955 601.018 799.289 599.141 797.364 597.216C766.304 566.294 735.339 535.277 704.375 504.284C694.964 494.872 685.506 485.483 676.214 475.953C675.168 474.883 674.598 473.005 674.432 471.461C674.146 468.822 674.289 466.137 674.408 463.475C674.598 459.41 674.812 455.821 669.703 453.92C666.257 452.637 665.092 446.433 666.518 442.535C668.087 438.305 671.936 435.904 676.856 436.142C680.967 436.356 684.484 439.35 685.625 443.629C686.742 447.812 685.054 452.922 681.204 454.514C677.64 455.988 677.616 458.388 677.165 461.573C676 469.868 679.446 475.501 685.197 481.158C717.873 513.363 750.216 545.877 782.654 578.296C788.31 583.953 793.823 589.705 799.598 595.243C801.975 597.525 802.878 599.901 802.854 603.205C802.735 674.223 802.711 745.265 802.687 816.283C802.687 821.488 802.783 826.693 802.854 831.898C801.856 831.969 800.881 831.969 799.907 831.969ZM676.452 441.822C673.742 441.775 671.913 443.224 671.604 445.744C671.295 448.382 673.029 450.07 675.62 450.426C678.281 450.783 679.731 449.071 680.111 446.742C680.563 444.056 679.042 442.464 676.452 441.822Z" fill="url(#paint33_linear_123_927)"/>
<path d="M1352.57 831.969C1352.59 825.172 1352.64 818.398 1352.64 811.6C1352.64 741.676 1352.62 671.727 1352.73 601.803C1352.73 599.877 1353.73 597.477 1355.09 596.098C1367.97 582.979 1381.04 570.049 1393.92 556.929C1395.18 555.646 1396.13 553.412 1396.15 551.605C1396.37 539.603 1396.34 527.6 1396.18 515.621C1396.15 513.91 1395.25 511.866 1394.11 510.558C1390.59 506.613 1386.67 502.976 1383.01 499.15C1381.3 497.343 1379.78 496.464 1377.05 497.534C1371.79 499.578 1365.97 497.13 1363.74 492.495C1361.34 487.456 1363.07 481.467 1367.8 478.496C1372.53 475.525 1378.47 476.594 1382.04 481.276C1384.34 484.271 1384.86 487.765 1383.39 491.211C1382.3 493.778 1383.01 495.442 1384.89 497.201C1388.76 500.837 1392.4 504.688 1396.25 508.348C1398.31 510.297 1399.19 512.46 1399.17 515.383C1399.03 527.386 1398.96 539.389 1399.22 551.368C1399.29 554.861 1398.15 557.262 1395.77 559.615C1383.3 571.927 1370.99 584.381 1358.49 596.693C1356.32 598.808 1355.47 600.971 1355.47 604.013C1355.54 678.311 1355.54 752.609 1355.52 826.883C1355.52 828.57 1355.49 830.282 1355.47 831.969C1354.52 831.969 1353.54 831.969 1352.57 831.969Z" fill="url(#paint34_linear_123_927)"/>
<path d="M420.319 831.969C420.343 799.122 420.39 766.275 420.271 733.428C420.271 731.765 419.154 729.721 417.942 728.461C410.29 720.546 402.496 712.75 394.63 705.05C392.752 703.22 391.944 701.342 391.944 698.68C391.992 628.732 392.016 558.807 391.873 488.858C391.873 483.938 393.394 480.468 396.911 477.188C403.731 470.842 410.124 464.045 416.826 457.533C418.584 455.821 418.822 454.419 417.776 452.137C415.875 448.049 417.42 443.177 420.984 440.444C424.24 437.948 429.468 437.758 432.581 440.016C436.431 442.797 438.023 447.455 436.55 451.496C434.839 456.154 430.823 459.315 426.189 458.151C421.507 456.962 419.131 459.077 416.35 461.977C409.958 468.585 403.232 474.907 396.816 481.49C395.77 482.56 395.129 484.414 395.01 485.959C394.749 489.453 394.939 492.97 394.939 496.488C394.939 563.632 394.915 630.799 395.01 697.943C395.01 699.726 396.008 701.936 397.291 703.243C405.11 711.324 413.19 719.168 421.032 727.249C422.244 728.485 423.242 730.576 423.242 732.264C423.361 765.467 423.313 798.694 423.289 831.898C422.244 831.969 421.293 831.969 420.319 831.969ZM431.25 448.43C431.227 445.768 429.516 444.365 426.973 444.246C424.454 444.104 422.814 445.744 422.695 448.192C422.577 450.783 424.121 452.613 426.783 452.731C429.444 452.85 431.013 451.353 431.25 448.43Z" fill="url(#paint35_linear_123_927)"/>
<path d="M682.82 831.969C682.772 798.029 682.725 764.112 682.725 730.172C682.725 706.547 682.701 682.898 682.867 659.273C682.891 657.467 683.865 655.304 685.077 653.901C687.929 650.621 691.137 647.65 694.298 644.656C695.938 643.087 696.674 641.661 695.7 639.26C693.942 634.959 695.391 630.466 698.884 627.923C702.711 625.142 707.178 625.166 711.028 627.947C714.498 630.466 715.852 635.101 714.355 639.332C712.834 643.634 709.008 645.939 704.184 645.963C702.568 645.963 700.596 646.652 699.431 647.722C688.404 657.966 688.428 658.013 688.428 673.082C688.428 724.705 688.428 776.353 688.428 827.976C688.428 829.307 688.547 830.638 688.595 831.969C686.717 831.969 684.768 831.969 682.82 831.969ZM710.885 635.743C708.248 633.794 706.774 631.869 705.087 631.655C702.687 631.37 700.762 633.128 700.548 635.814C700.358 638.191 702.996 640.782 705.277 640.045C707.036 639.522 708.366 637.763 710.885 635.743Z" fill="url(#paint36_linear_123_927)"/>
<path d="M1206.39 831.969C1206.49 830.52 1206.68 829.093 1206.68 827.644C1206.68 752.395 1206.65 677.146 1206.75 601.921C1206.75 600.115 1207.68 597.881 1208.94 596.574C1217.25 587.97 1225.81 579.604 1234.15 571C1235.27 569.835 1236.03 567.815 1236.03 566.199C1236.15 545.354 1236.08 524.51 1236.12 503.689C1236.12 501.527 1235.58 500.148 1233.41 499.174C1228.78 497.106 1226.88 492.519 1228.09 487.385C1229.09 483.225 1233.29 480.064 1237.79 480.112C1242.4 480.159 1246.44 483.534 1247.6 488.312C1248.6 492.4 1246.13 497.462 1241.73 499.221C1239.26 500.219 1238.9 501.74 1238.93 503.975C1239 524.32 1238.9 544.689 1239.12 565.034C1239.16 568.861 1238.07 571.665 1235.34 574.303C1227.78 581.6 1220.46 589.182 1212.93 596.526C1210.53 598.879 1209.48 601.351 1209.48 604.821C1209.58 678.858 1209.58 752.894 1209.55 826.931C1209.55 828.618 1209.39 830.306 1209.32 831.993C1208.34 831.969 1207.37 831.969 1206.39 831.969ZM1238.78 485.46C1235.36 486.268 1233.37 487.385 1233.41 490.142C1233.46 492.78 1235.12 494.515 1237.79 494.42C1240.35 494.325 1242.35 492.614 1241.85 489.975C1241.49 488.24 1239.71 486.767 1238.78 485.46Z" fill="url(#paint37_linear_123_927)"/>
<path d="M450.856 831.969C450.785 830.282 450.642 828.594 450.642 826.907C450.618 771.29 450.642 715.674 450.547 660.057C450.547 657.158 451.83 655.375 453.708 653.521C470.865 636.48 487.928 619.343 505.157 602.397C508.009 599.592 509.031 596.645 509.007 592.771C508.864 576.656 508.983 560.542 508.841 544.427C508.817 541.67 509.482 539.507 511.55 537.701C513.261 536.18 514.829 534.492 516.493 532.9C519.321 530.19 521.673 527.814 520.152 522.989C518.703 518.425 521.84 514.242 526.402 512.412C530.157 510.915 535.171 512.341 537.881 515.716C540.518 518.972 540.637 524.082 538.19 527.6C535.528 531.379 530.656 532.995 526.284 531.117C524.074 530.167 522.743 530.713 521.174 532.211C511.835 541.147 511.787 541.123 511.764 554.267C511.764 568.195 511.906 582.147 511.692 596.074C511.669 598.214 510.575 600.876 509.078 602.397C491.493 620.222 473.788 637.906 455.989 655.518C454.016 657.467 453.47 659.392 453.47 661.935C453.517 693.807 453.494 725.68 453.494 757.552C453.494 781.059 453.494 804.565 453.517 828.071C453.517 829.402 453.684 830.709 453.779 832.04C452.804 831.969 451.83 831.969 450.856 831.969ZM528.684 526.245C532.51 525.888 534.055 524.415 534.245 521.753C534.387 519.637 531.821 517.094 529.777 517.451C527.329 517.879 525.167 519.376 525.69 522.038C526.046 523.773 527.9 525.199 528.684 526.245Z" fill="url(#paint38_linear_123_927)"/>
<path d="M480.681 831.969C480.776 830.638 480.966 829.331 480.966 828C480.99 781.701 480.966 735.425 481.085 689.125C481.085 687.319 482.035 685.085 483.295 683.801C500.952 665.904 518.775 648.15 536.455 630.276C537.596 629.112 538.547 627.187 538.57 625.594C538.761 609.361 538.808 593.127 538.618 576.894C538.594 575.516 536.883 573.638 535.481 572.854C530.158 569.859 527.9 564.131 530.277 558.617C532.534 553.364 538.262 550.964 543.917 552.984C548.456 554.6 550.548 558.213 550.833 562.729C551.094 566.912 549.217 570.596 545.367 572.188C542.088 573.543 541.565 575.563 541.565 578.582C541.636 594.221 541.541 609.836 541.66 625.475C541.684 628.256 540.828 630.229 538.879 632.178C521.223 649.79 503.589 667.449 486.099 685.227C484.839 686.511 483.984 688.769 483.984 690.599C483.841 736.281 483.865 781.962 483.841 827.644C483.841 829.094 483.699 830.543 483.627 831.993C482.606 831.969 481.631 831.969 480.681 831.969Z" fill="url(#paint39_linear_123_927)"/>
<path d="M1178.04 831.969C1178.02 789.33 1178.02 746.667 1177.95 704.028C1177.95 701.271 1178.71 699.179 1180.92 697.42C1182.8 695.923 1184.13 693.689 1186.08 692.334C1191.99 688.246 1192.73 682.637 1192.66 675.934C1192.3 651.335 1192.47 626.735 1192.63 602.159C1192.66 600.139 1193.68 597.62 1195.11 596.17C1203.09 587.899 1211.38 579.913 1219.42 571.689C1220.63 570.453 1221.53 568.409 1221.58 566.698C1221.82 559.306 1221.79 551.914 1221.56 544.522C1221.51 542.811 1220.46 540.981 1219.46 539.46C1218.56 538.081 1216.99 537.154 1215.9 535.895C1213.36 532.948 1210.98 530.904 1206.42 532.425C1202.21 533.827 1197.72 530.761 1195.91 526.578C1194.13 522.442 1195.39 517.641 1199 514.86C1202.64 512.056 1207.49 511.984 1211.1 514.741C1214.76 517.522 1216.33 522.3 1214.47 526.34C1213.48 528.527 1213.64 530.143 1215.45 531.403C1223.46 536.941 1225.86 544.57 1224.65 553.982C1224.05 558.522 1224.74 563.18 1224.43 567.767C1224.31 569.597 1223.43 571.784 1222.17 573.091C1214.52 581.006 1206.73 588.754 1198.81 596.407C1196.37 598.784 1195.37 601.232 1195.39 604.679C1195.53 630.847 1195.53 657.015 1195.37 683.183C1195.34 685.418 1194.13 688.032 1192.66 689.815C1189.74 693.332 1186.12 696.279 1183.11 699.726C1181.96 701.033 1181.06 703.101 1181.06 704.812C1180.97 747.214 1180.99 789.615 1181.01 832.041C1179.99 831.969 1179.02 831.969 1178.04 831.969ZM1209.41 522.989C1209.15 520.042 1207.77 518.354 1205.06 518.425C1202.45 518.497 1200.76 520.113 1200.86 522.822C1200.95 525.294 1202.45 526.982 1204.99 526.911C1207.46 526.815 1209.29 525.58 1209.41 522.989Z" fill="url(#paint40_linear_123_927)"/>
<path d="M14.543 831.969C14.638 830.401 14.8044 828.832 14.8044 827.263C14.8281 748.854 14.8994 670.444 14.6856 592.034C14.6618 586.14 16.3253 582.075 20.6029 578.178C27.8985 571.475 34.6951 564.226 41.6818 557.191C43.6067 555.265 44.8424 546.733 43.369 544.546C42.8938 543.833 41.8719 543.429 41.0401 543.025C36.3348 540.625 34.2436 536.465 35.3605 531.688C36.5012 526.839 40.351 523.773 45.3177 523.773C49.7141 523.773 53.9679 527.267 54.966 531.712C55.9641 536.085 53.4213 540.672 49.0725 543.12C48.0031 543.738 46.7673 545.544 46.9337 546.638C48.0268 554.22 44.6048 559.306 39.1152 564.083C32.6514 569.716 26.9004 576.134 20.793 582.171C18.7255 584.215 17.5848 586.401 17.5848 589.491C17.6799 669.232 17.6561 748.972 17.6561 828.737C17.6561 829.83 17.5373 830.9 17.466 831.993C16.4916 831.969 15.5173 831.969 14.543 831.969ZM44.8424 538.058C47.3377 538.034 49.4765 536.655 49.2151 534.112C49.0487 532.448 47.2664 530.167 45.6979 529.62C43.2502 528.764 41.254 530.642 40.9213 533.209C40.5886 535.823 41.967 537.558 44.8424 538.058Z" fill="url(#paint41_linear_123_927)"/>
<path d="M277.067 831.969C277.162 831.019 277.329 830.044 277.329 829.093C277.353 802.188 277.376 775.283 277.305 748.402C277.305 745.407 278.113 743.197 280.299 741.034C293.037 728.485 305.703 715.816 318.227 703.053C319.487 701.77 320.413 699.535 320.413 697.729C320.556 666.356 320.604 634.959 320.485 603.561C320.485 601.612 319.605 599.212 318.298 597.833C312.761 591.915 306.868 586.33 301.188 580.531C299.62 578.938 298.194 578.653 296.031 579.413C291.73 580.935 286.787 578.795 284.553 574.802C282.343 570.881 283.175 565.652 286.526 562.467C289.686 559.472 294.914 558.997 298.645 561.421C302.638 563.988 304.61 568.861 302.733 573.091C301.497 575.872 302.162 577.488 304.135 579.39C309.624 584.69 314.924 590.18 320.39 595.48C322.481 597.524 323.574 599.616 323.574 602.753C323.432 634.864 323.55 666.974 323.408 699.084C323.408 700.985 322.243 703.291 320.865 704.669C308.412 717.361 295.817 729.934 283.175 742.436C281.131 744.48 280.204 746.572 280.228 749.472C280.323 775.402 280.299 801.333 280.299 827.263C280.299 828.832 280.133 830.401 280.062 831.969C278.992 831.969 278.018 831.969 277.067 831.969ZM297.576 569.764C297.386 567.007 295.675 565.533 293.108 565.581C290.708 565.628 289.068 567.102 289.068 569.716C289.068 572.473 290.756 574.137 293.298 574.161C295.865 574.208 297.386 572.473 297.576 569.764Z" fill="url(#paint42_linear_123_927)"/>
<path d="M346.864 831.969C346.959 830.757 347.125 829.569 347.125 828.357C347.173 784.03 347.173 739.727 347.244 695.4C347.244 691.692 346.84 688.769 343.156 686.273C338.76 683.302 339.14 675.887 342.99 672.013C346.983 667.996 353.732 668.233 357.581 672.559C361.265 676.695 361.075 683.611 356.488 686.772C353.351 688.911 352.829 691.359 352.829 694.663C352.9 738.752 352.9 782.818 352.9 826.907C352.9 828.594 352.757 830.282 352.686 831.969C350.737 831.969 348.812 831.969 346.864 831.969ZM349.858 674.841C347.315 675.245 345.272 676.861 345.794 679.333C346.151 680.973 348.29 683.088 349.929 683.397C352.353 683.849 354.278 681.9 354.278 679.214C354.278 676.528 352.615 675.055 349.858 674.841Z" fill="url(#paint43_linear_123_927)"/>
<path d="M610.1 831.969C610.147 814.167 610.29 796.365 610.195 778.539C610.171 774.737 611.24 772.003 614.021 769.318C626.568 757.077 638.854 744.528 651.331 732.216C653.422 730.172 654.277 728.057 654.254 725.181C654.206 684.348 654.254 643.515 654.159 602.706C654.159 599.664 654.895 597.358 657.248 595.409C658.911 594.031 660.171 592.129 661.882 590.822C665.518 588.041 667.371 585.118 666.041 580.103C664.971 576.086 668.465 571.76 672.552 570.358C676.545 568.979 681.487 570.477 683.959 573.804C686.454 577.179 686.502 582.337 684.03 585.759C681.535 589.206 676.473 591.107 672.742 589.277C669.653 587.756 668.18 589.111 665.874 590.846C658.317 596.479 656.773 603.752 656.891 612.878C657.367 650.788 657.034 688.721 657.082 726.631C657.082 729.364 656.25 731.337 654.254 733.309C641.397 745.954 628.707 758.765 615.922 771.48C614.021 773.382 613.07 775.355 613.07 778.183C613.141 796.104 613.023 814.048 612.951 831.969C612.048 831.969 611.074 831.969 610.1 831.969ZM675.784 575.468C673.313 575.943 671.411 577.274 671.554 579.984C671.697 582.527 673.526 584.666 676.045 584.072C677.685 583.692 679.8 581.529 680.085 579.889C680.513 577.441 678.517 575.753 675.784 575.468Z" fill="url(#paint44_linear_123_927)"/>
<path d="M263.973 831.969C263.949 806.514 264.258 781.082 263.664 755.651C263.474 747.213 265.351 741.01 272.005 735.591C278.351 730.41 283.84 724.182 289.496 718.217C290.779 716.862 291.872 714.699 291.872 712.893C292.015 687.699 291.896 662.481 291.944 637.288C291.944 634.079 291.754 631.678 287.975 630.276C283.745 628.731 281.82 623.289 282.937 618.582C284.149 613.544 288.237 610.311 293.441 610.264C298.218 610.24 302.566 613.829 303.85 618.844C304.919 623.075 302.733 628.565 298.36 630.371C295.199 631.678 294.748 633.532 294.748 636.456C294.819 661.768 294.748 687.105 294.819 712.441C294.819 715.531 294.154 717.884 291.801 720.142C283.959 727.7 276.354 735.472 268.774 743.316C267.728 744.409 266.849 746.215 266.849 747.689C266.777 775.806 266.825 803.899 266.849 832.017C265.898 831.969 264.948 831.969 263.973 831.969Z" fill="url(#paint45_linear_123_927)"/>
<path d="M246.507 831.969C246.578 830.52 246.673 829.07 246.673 827.62C246.673 791.754 246.673 755.889 246.721 720C246.721 717.385 246.198 715.317 244.107 713.606C242.61 712.394 241.54 710.611 239.972 709.542C233.223 704.883 232.082 698.49 232.296 690.67C232.819 670.8 232.344 650.931 232.557 631.061C232.581 628.85 234.031 626.236 235.623 624.572C242.705 617.133 250.024 609.931 257.367 602.73C258.96 601.161 259.34 599.854 258.579 597.643C256.987 592.985 258.864 588.326 262.833 585.997C267.111 583.502 272.268 584.357 275.69 588.136C278.589 591.345 278.874 596.55 276.331 600.281C273.717 604.108 268.941 605.724 264.473 603.847C262.12 602.848 260.813 603.395 259.15 605.13C252.258 612.237 245.057 619.082 238.237 626.26C236.74 627.828 235.552 630.395 235.528 632.487C235.338 654.424 235.362 676.362 235.457 698.276C235.457 699.654 236.265 701.318 237.215 702.364C240.495 705.929 244.131 709.161 247.339 712.774C248.503 714.081 249.525 716.125 249.549 717.813C249.644 755.39 249.596 792.943 249.573 830.519C249.573 830.995 249.478 831.494 249.454 831.969C248.456 831.969 247.481 831.969 246.507 831.969ZM267.919 590.204C265.495 590.679 263.712 591.844 263.831 594.72C263.95 597.524 265.804 599.331 268.204 598.808C269.82 598.451 271.864 596.265 272.172 594.601C272.624 592.177 270.747 590.442 267.919 590.204Z" fill="url(#paint46_linear_123_927)"/>
<path d="M1101.69 831.969C1101.71 774.998 1101.74 718.051 1101.64 661.079C1101.64 659.273 1100.62 657.086 1099.36 655.732C1095.03 651.026 1090.35 646.628 1085.86 642.041C1084.22 640.378 1082.72 639.593 1080.13 640.401C1075.07 641.994 1069.96 639.427 1067.68 634.768C1065.66 630.633 1066.73 625.071 1070.13 622.1C1074.1 618.63 1079.66 618.416 1083.84 621.577C1087.88 624.62 1089.33 629.825 1087.03 634.578C1085.86 636.979 1086.12 638.405 1088.02 640.211C1092.87 644.775 1097.62 649.433 1102.14 654.329C1103.47 655.755 1104.52 658.085 1104.52 660.01C1104.63 717.337 1104.61 774.665 1104.59 831.993C1103.64 831.969 1102.66 831.969 1101.69 831.969Z" fill="url(#paint47_linear_123_927)"/>
<path d="M547.576 831.969C547.529 806.419 547.505 780.869 547.458 755.342C547.434 744.195 547.41 733.072 547.481 721.925C547.505 719.548 546.911 717.956 544.725 716.577C540.732 714.034 539.33 709.352 540.732 705.097C542.063 701.033 545.937 698.323 550.476 698.3C554.634 698.276 558.365 701.033 559.72 705.168C561.146 709.494 559.815 713.986 555.846 716.625C554.064 717.813 553.114 718.93 553.114 721.188C553.185 757.505 553.161 793.822 553.185 830.163C553.185 830.757 553.304 831.375 553.351 831.969C551.45 831.969 549.501 831.969 547.576 831.969ZM550.262 712.655C552.995 712.394 554.658 710.92 554.587 708.235C554.516 705.573 552.757 704.051 550.072 704.075C547.458 704.099 545.96 705.882 546.008 708.235C546.055 710.683 547.434 712.56 550.262 712.655Z" fill="url(#paint48_linear_123_927)"/>
<path d="M1381.66 831.969C1381.68 774.903 1381.7 717.837 1381.66 660.77C1381.66 658.037 1382.23 655.898 1384.25 653.997C1386.53 651.857 1388.45 649.314 1390.73 647.175C1392.97 645.084 1393.87 643.135 1392.71 639.879C1390.97 635.006 1393.37 630.419 1398.03 628.161C1402.14 626.188 1407.39 627.448 1410.1 631.108C1413.14 635.196 1412.98 640.449 1409.48 644.085C1406.56 647.128 1402.9 648.269 1398.91 646.676C1396.87 645.844 1395.61 646.106 1394.2 647.722C1391.57 650.717 1388.57 653.402 1386.12 656.516C1385.13 657.776 1384.72 659.82 1384.7 661.507C1384.63 717.48 1384.63 773.453 1384.63 829.426C1384.63 830.282 1384.6 831.114 1384.58 831.969C1383.6 831.969 1382.63 831.969 1381.66 831.969ZM1402 641.59C1404.71 641.376 1406.35 639.902 1406.39 637.288C1406.44 634.816 1404.85 633.081 1402.45 632.962C1399.91 632.843 1398.05 634.412 1397.89 637.05C1397.74 639.736 1399.46 641.162 1402 641.59Z" fill="url(#paint49_linear_123_927)"/>
<path d="M160.718 831.969C160.766 826.527 160.861 821.06 160.885 815.617C160.908 783.626 160.932 751.611 160.79 719.619C160.79 717.718 159.768 715.365 158.437 713.986C151.355 706.547 143.964 699.369 136.764 692.025C135.314 690.551 134.197 690.029 132.059 690.979C127.139 693.142 121.46 691.336 118.869 687.176C116.065 682.708 116.564 677.36 120.081 673.819C123.86 670.04 129.088 669.256 133.366 671.846C137.928 674.603 139.925 679.951 137.762 685.109C136.716 687.604 137.572 688.864 139.164 690.433C146.65 697.824 154.112 705.24 161.431 712.798C162.643 714.058 163.689 716.102 163.689 717.789C163.808 755.01 163.76 792.206 163.736 829.426C163.736 830.282 163.641 831.114 163.594 831.969C162.643 831.969 161.669 831.969 160.718 831.969Z" fill="url(#paint50_linear_123_927)"/>
<path d="M174.525 831.969C174.478 830.282 174.359 828.594 174.359 826.883C174.359 777.304 174.311 727.748 174.43 678.168C174.43 674.08 173.598 670.919 170.248 668.447C168.893 667.449 167.752 666.142 166.659 664.859C164.306 662.149 162.12 660.557 158.009 662.268C154.135 663.884 149.43 660.889 147.339 656.73C145.295 652.618 146.222 648.364 149.929 644.941C152.995 642.113 157.7 641.637 161.407 643.8C165.257 646.058 167.586 650.907 165.994 654.995C164.71 658.251 165.542 660.271 168.061 662.101C175.737 667.616 177.543 674.96 177.448 684.348C176.949 731.86 177.211 779.371 177.234 826.859C177.234 828.547 177.353 830.234 177.401 831.946C176.474 831.969 175.499 831.969 174.525 831.969ZM157.605 648.078C153.945 648.506 151.806 649.956 152.21 652.476C152.472 654.116 154.444 656.064 156.132 656.777C158.152 657.633 161.217 654.71 160.623 652.499C160.172 650.693 158.46 649.267 157.605 648.078Z" fill="url(#paint51_linear_123_927)"/>
<path d="M1236.22 831.969C1236.24 786.525 1236.38 741.058 1236.12 695.614C1236.08 688.84 1237.05 683.326 1242.78 679.214C1244.32 678.097 1245.44 676.386 1246.91 675.126C1248.62 673.676 1248.88 672.203 1248.22 670.016C1246.72 665.191 1248.88 660.485 1253.3 658.061C1257.01 656.041 1262.19 657.039 1265.26 660.39C1268.35 663.741 1268.63 669.018 1265.97 672.821C1263.29 676.647 1258.51 677.812 1253.64 676.291C1252.38 675.887 1250.69 676.766 1249.22 677.075C1249.12 677.099 1249.05 677.265 1248.96 677.336C1240.61 682.993 1238.83 690.813 1238.95 700.7C1239.47 744.456 1239.16 788.213 1239.16 831.945C1238.17 831.969 1237.19 831.969 1236.22 831.969ZM1257.65 671.347C1260.5 671.086 1262.05 669.517 1261.98 666.902C1261.91 664.24 1259.98 662.315 1257.53 662.886C1255.94 663.266 1253.92 665.405 1253.61 667.021C1253.16 669.493 1255.11 671.133 1257.65 671.347Z" fill="url(#paint52_linear_123_927)"/>
<path d="M1045.7 831.969C1045.68 794.06 1045.6 756.126 1045.75 718.217C1045.75 716.22 1047.03 713.796 1048.46 712.275C1054.25 706.119 1060.29 700.177 1066.37 694.283C1068.13 692.572 1068.63 691.05 1067.87 688.579C1066.11 682.898 1069.34 677.55 1075.1 675.982C1080.16 674.603 1085.6 677.907 1087.1 683.326C1088.12 687.057 1087.05 690.361 1084.41 692.952C1081.75 695.543 1078.26 696.731 1074.72 695.281C1071.55 693.974 1069.75 694.853 1067.56 697.206C1062.12 703.053 1056.27 708.496 1050.76 714.271C1049.64 715.436 1048.69 717.361 1048.69 718.954C1048.6 756.626 1048.65 794.297 1048.69 831.969C1047.62 831.969 1046.67 831.969 1045.7 831.969ZM1077.52 690.123C1080.16 689.933 1081.61 688.27 1081.58 685.679C1081.56 682.969 1079.71 681.472 1077.12 681.543C1074.69 681.615 1073.05 683.088 1073.17 685.726C1073.27 688.365 1074.6 689.981 1077.52 690.123Z" fill="url(#paint53_linear_123_927)"/>
<path d="M117.085 831.969C117.061 802.878 117.014 773.786 116.99 744.718C116.99 743.268 116.871 741.794 116.99 740.368C117.299 736.114 117.156 732.501 112.095 730.505C108.744 729.174 107.413 723.018 108.72 719.5C110.146 715.555 114.352 712.727 118.63 712.798C122.86 712.893 126.781 715.959 127.969 720.118C129.181 724.373 127.732 729.364 123.787 731.099C120.079 732.739 119.818 735.187 119.818 738.562C119.889 768.367 119.866 798.195 119.866 828C119.866 829.331 119.961 830.662 120.008 831.993C119.01 831.969 118.036 831.969 117.085 831.969ZM113.829 721.544C114.305 725.371 115.731 726.963 118.392 727.13C120.483 727.272 122.931 724.729 122.646 722.638C122.29 720.071 120.769 718.098 118.083 718.668C116.372 719.049 114.946 720.76 113.829 721.544Z" fill="url(#paint54_linear_123_927)"/>
</g>
<defs>
<linearGradient id="paint0_linear_123_927" x1="361.488" y1="72.0166" x2="361.488" y2="831.969" gradientUnits="userSpaceOnUse">
<stop stop-color="#C2715C"/>
<stop offset="1" stop-color="white"/>
</linearGradient>
<linearGradient id="paint1_linear_123_927" x1="779.55" y1="161.942" x2="779.55" y2="832.017" gradientUnits="userSpaceOnUse">
<stop stop-color="#C2715C"/>
<stop offset="1" stop-color="white"/>
</linearGradient>
<linearGradient id="paint2_linear_123_927" x1="913.693" y1="115.634" x2="913.693" y2="831.969" gradientUnits="userSpaceOnUse">
<stop stop-color="#C2715C"/>
<stop offset="1" stop-color="white"/>
</linearGradient>
<linearGradient id="paint3_linear_123_927" x1="150.116" y1="174.607" x2="150.116" y2="831.969" gradientUnits="userSpaceOnUse">
<stop stop-color="#C2715C"/>
<stop offset="1" stop-color="white"/>
</linearGradient>
<linearGradient id="paint4_linear_123_927" x1="462.413" y1="261.114" x2="462.413" y2="831.969" gradientUnits="userSpaceOnUse">
<stop stop-color="#C2715C"/>
<stop offset="1" stop-color="white"/>
</linearGradient>
<linearGradient id="paint5_linear_123_927" x1="260.485" y1="232.76" x2="260.485" y2="831.969" gradientUnits="userSpaceOnUse">
<stop stop-color="#C2715C"/>
<stop offset="1" stop-color="white"/>
</linearGradient>
<linearGradient id="paint6_linear_123_927" x1="1095.21" y1="290.925" x2="1095.21" y2="831.969" gradientUnits="userSpaceOnUse">
<stop stop-color="#C2715C"/>
<stop offset="1" stop-color="white"/>
</linearGradient>
<linearGradient id="paint7_linear_123_927" x1="706.772" y1="396.245" x2="706.772" y2="831.969" gradientUnits="userSpaceOnUse">
<stop stop-color="#C2715C"/>
<stop offset="1" stop-color="white"/>
</linearGradient>
<linearGradient id="paint8_linear_123_927" x1="794.097" y1="0" x2="794.097" y2="831.969" gradientUnits="userSpaceOnUse">
<stop stop-color="#C2715C"/>
<stop offset="1" stop-color="white"/>
</linearGradient>
<linearGradient id="paint9_linear_123_927" x1="994.759" y1="407.43" x2="994.759" y2="831.969" gradientUnits="userSpaceOnUse">
<stop stop-color="#C2715C"/>
<stop offset="1" stop-color="white"/>
</linearGradient>
<linearGradient id="paint10_linear_123_927" x1="1353.08" y1="438.441" x2="1353.08" y2="831.969" gradientUnits="userSpaceOnUse">
<stop stop-color="#C2715C"/>
<stop offset="1" stop-color="white"/>
</linearGradient>
<linearGradient id="paint11_linear_123_927" x1="673.086" y1="159.366" x2="673.086" y2="831.969" gradientUnits="userSpaceOnUse">
<stop stop-color="#C2715C"/>
<stop offset="1" stop-color="white"/>
</linearGradient>
<linearGradient id="paint12_linear_123_927" x1="1298.43" y1="131.059" x2="1298.43" y2="832.017" gradientUnits="userSpaceOnUse">
<stop stop-color="#C2715C"/>
<stop offset="1" stop-color="white"/>
</linearGradient>
<linearGradient id="paint13_linear_123_927" x1="692.368" y1="190.955" x2="692.368" y2="831.969" gradientUnits="userSpaceOnUse">
<stop stop-color="#C2715C"/>
<stop offset="1" stop-color="white"/>
</linearGradient>
<linearGradient id="paint14_linear_123_927" x1="968.043" y1="494.625" x2="968.043" y2="831.969" gradientUnits="userSpaceOnUse">
<stop stop-color="#C2715C"/>
<stop offset="1" stop-color="white"/>
</linearGradient>
<linearGradient id="paint15_linear_123_927" x1="1168.6" y1="217.566" x2="1168.6" y2="831.969" gradientUnits="userSpaceOnUse">
<stop stop-color="#C2715C"/>
<stop offset="1" stop-color="white"/>
</linearGradient>
<linearGradient id="paint16_linear_123_927" x1="557.251" y1="203.527" x2="557.251" y2="832.017" gradientUnits="userSpaceOnUse">
<stop stop-color="#C2715C"/>
<stop offset="1" stop-color="white"/>
</linearGradient>
<linearGradient id="paint17_linear_123_927" x1="57.0805" y1="232.119" x2="57.0805" y2="831.969" gradientUnits="userSpaceOnUse">
<stop stop-color="#C2715C"/>
<stop offset="1" stop-color="white"/>
</linearGradient>
<linearGradient id="paint18_linear_123_927" x1="587.604" y1="263.303" x2="587.604" y2="831.969" gradientUnits="userSpaceOnUse">
<stop stop-color="#C2715C"/>
<stop offset="1" stop-color="white"/>
</linearGradient>
<linearGradient id="paint19_linear_123_927" x1="1390.06" y1="261.905" x2="1390.06" y2="831.969" gradientUnits="userSpaceOnUse">
<stop stop-color="#C2715C"/>
<stop offset="1" stop-color="white"/>
</linearGradient>
<linearGradient id="paint20_linear_123_927" x1="1164.92" y1="538.256" x2="1164.92" y2="832.017" gradientUnits="userSpaceOnUse">
<stop stop-color="#C2715C"/>
<stop offset="1" stop-color="white"/>
</linearGradient>
<linearGradient id="paint21_linear_123_927" x1="1269.43" y1="305.488" x2="1269.43" y2="832.041" gradientUnits="userSpaceOnUse">
<stop stop-color="#C2715C"/>
<stop offset="1" stop-color="white"/>
</linearGradient>
<linearGradient id="paint22_linear_123_927" x1="234.536" y1="312.812" x2="234.536" y2="832.017" gradientUnits="userSpaceOnUse">
<stop stop-color="#C2715C"/>
<stop offset="1" stop-color="white"/>
</linearGradient>
<linearGradient id="paint23_linear_123_927" x1="540.168" y1="349.113" x2="540.168" y2="831.993" gradientUnits="userSpaceOnUse">
<stop stop-color="#C2715C"/>
<stop offset="1" stop-color="white"/>
</linearGradient>
<linearGradient id="paint24_linear_123_927" x1="1020.01" y1="327.25" x2="1020.01" y2="831.969" gradientUnits="userSpaceOnUse">
<stop stop-color="#C2715C"/>
<stop offset="1" stop-color="white"/>
</linearGradient>
<linearGradient id="paint25_linear_123_927" x1="661.751" y1="597.908" x2="661.751" y2="831.969" gradientUnits="userSpaceOnUse">
<stop stop-color="#C2715C"/>
<stop offset="1" stop-color="white"/>
</linearGradient>
<linearGradient id="paint26_linear_123_927" x1="822.288" y1="380.918" x2="822.288" y2="831.969" gradientUnits="userSpaceOnUse">
<stop stop-color="#C2715C"/>
<stop offset="1" stop-color="white"/>
</linearGradient>
<linearGradient id="paint27_linear_123_927" x1="121.018" y1="363.634" x2="121.018" y2="832.017" gradientUnits="userSpaceOnUse">
<stop stop-color="#C2715C"/>
<stop offset="1" stop-color="white"/>
</linearGradient>
<linearGradient id="paint28_linear_123_927" x1="1244.33" y1="584.744" x2="1244.33" y2="831.969" gradientUnits="userSpaceOnUse">
<stop stop-color="#C2715C"/>
<stop offset="1" stop-color="white"/>
</linearGradient>
<linearGradient id="paint29_linear_123_927" x1="27.5679" y1="349.152" x2="27.5679" y2="831.969" gradientUnits="userSpaceOnUse">
<stop stop-color="#C2715C"/>
<stop offset="1" stop-color="white"/>
</linearGradient>
<linearGradient id="paint30_linear_123_927" x1="216.476" y1="392.856" x2="216.476" y2="831.969" gradientUnits="userSpaceOnUse">
<stop stop-color="#C2715C"/>
<stop offset="1" stop-color="white"/>
</linearGradient>
<linearGradient id="paint31_linear_123_927" x1="328.753" y1="437.68" x2="328.753" y2="831.969" gradientUnits="userSpaceOnUse">
<stop stop-color="#C2715C"/>
<stop offset="1" stop-color="white"/>
</linearGradient>
<linearGradient id="paint32_linear_123_927" x1="862.419" y1="407.287" x2="862.419" y2="831.993" gradientUnits="userSpaceOnUse">
<stop stop-color="#C2715C"/>
<stop offset="1" stop-color="white"/>
</linearGradient>
<linearGradient id="paint33_linear_123_927" x1="734.389" y1="436.126" x2="734.389" y2="831.969" gradientUnits="userSpaceOnUse">
<stop stop-color="#C2715C"/>
<stop offset="1" stop-color="white"/>
</linearGradient>
<linearGradient id="paint34_linear_123_927" x1="1375.89" y1="476.835" x2="1375.89" y2="831.969" gradientUnits="userSpaceOnUse">
<stop stop-color="#C2715C"/>
<stop offset="1" stop-color="white"/>
</linearGradient>
<linearGradient id="paint35_linear_123_927" x1="414.483" y1="438.44" x2="414.483" y2="831.969" gradientUnits="userSpaceOnUse">
<stop stop-color="#C2715C"/>
<stop offset="1" stop-color="white"/>
</linearGradient>
<linearGradient id="paint36_linear_123_927" x1="698.841" y1="625.849" x2="698.841" y2="831.969" gradientUnits="userSpaceOnUse">
<stop stop-color="#C2715C"/>
<stop offset="1" stop-color="white"/>
</linearGradient>
<linearGradient id="paint37_linear_123_927" x1="1227.11" y1="480.111" x2="1227.11" y2="831.993" gradientUnits="userSpaceOnUse">
<stop stop-color="#C2715C"/>
<stop offset="1" stop-color="white"/>
</linearGradient>
<linearGradient id="paint38_linear_123_927" x1="495.246" y1="511.819" x2="495.246" y2="832.04" gradientUnits="userSpaceOnUse">
<stop stop-color="#C2715C"/>
<stop offset="1" stop-color="white"/>
</linearGradient>
<linearGradient id="paint39_linear_123_927" x1="515.769" y1="552.271" x2="515.769" y2="831.993" gradientUnits="userSpaceOnUse">
<stop stop-color="#C2715C"/>
<stop offset="1" stop-color="white"/>
</linearGradient>
<linearGradient id="paint40_linear_123_927" x1="1201.44" y1="512.715" x2="1201.44" y2="832.041" gradientUnits="userSpaceOnUse">
<stop stop-color="#C2715C"/>
<stop offset="1" stop-color="white"/>
</linearGradient>
<linearGradient id="paint41_linear_123_927" x1="34.8626" y1="523.773" x2="34.8626" y2="831.993" gradientUnits="userSpaceOnUse">
<stop stop-color="#C2715C"/>
<stop offset="1" stop-color="white"/>
</linearGradient>
<linearGradient id="paint42_linear_123_927" x1="300.321" y1="559.872" x2="300.321" y2="831.969" gradientUnits="userSpaceOnUse">
<stop stop-color="#C2715C"/>
<stop offset="1" stop-color="white"/>
</linearGradient>
<linearGradient id="paint43_linear_123_927" x1="350.068" y1="669.151" x2="350.068" y2="831.969" gradientUnits="userSpaceOnUse">
<stop stop-color="#C2715C"/>
<stop offset="1" stop-color="white"/>
</linearGradient>
<linearGradient id="paint44_linear_123_927" x1="647.979" y1="569.847" x2="647.979" y2="831.969" gradientUnits="userSpaceOnUse">
<stop stop-color="#C2715C"/>
<stop offset="1" stop-color="white"/>
</linearGradient>
<linearGradient id="paint45_linear_123_927" x1="283.885" y1="610.264" x2="283.885" y2="832.017" gradientUnits="userSpaceOnUse">
<stop stop-color="#C2715C"/>
<stop offset="1" stop-color="white"/>
</linearGradient>
<linearGradient id="paint46_linear_123_927" x1="255.169" y1="584.58" x2="255.169" y2="831.969" gradientUnits="userSpaceOnUse">
<stop stop-color="#C2715C"/>
<stop offset="1" stop-color="white"/>
</linearGradient>
<linearGradient id="paint47_linear_123_927" x1="1085.63" y1="619.344" x2="1085.63" y2="831.993" gradientUnits="userSpaceOnUse">
<stop stop-color="#C2715C"/>
<stop offset="1" stop-color="white"/>
</linearGradient>
<linearGradient id="paint48_linear_123_927" x1="550.239" y1="698.299" x2="550.239" y2="831.969" gradientUnits="userSpaceOnUse">
<stop stop-color="#C2715C"/>
<stop offset="1" stop-color="white"/>
</linearGradient>
<linearGradient id="paint49_linear_123_927" x1="1396.95" y1="627.233" x2="1396.95" y2="831.969" gradientUnits="userSpaceOnUse">
<stop stop-color="#C2715C"/>
<stop offset="1" stop-color="white"/>
</linearGradient>
<linearGradient id="paint50_linear_123_927" x1="140.414" y1="670.333" x2="140.414" y2="831.969" gradientUnits="userSpaceOnUse">
<stop stop-color="#C2715C"/>
<stop offset="1" stop-color="white"/>
</linearGradient>
<linearGradient id="paint51_linear_123_927" x1="161.864" y1="642.45" x2="161.864" y2="831.969" gradientUnits="userSpaceOnUse">
<stop stop-color="#C2715C"/>
<stop offset="1" stop-color="white"/>
</linearGradient>
<linearGradient id="paint52_linear_123_927" x1="1251.95" y1="657.02" x2="1251.95" y2="831.969" gradientUnits="userSpaceOnUse">
<stop stop-color="#C2715C"/>
<stop offset="1" stop-color="white"/>
</linearGradient>
<linearGradient id="paint53_linear_123_927" x1="1066.57" y1="675.669" x2="1066.57" y2="831.969" gradientUnits="userSpaceOnUse">
<stop stop-color="#C2715C"/>
<stop offset="1" stop-color="white"/>
</linearGradient>
<linearGradient id="paint54_linear_123_927" x1="118.305" y1="712.797" x2="118.305" y2="831.993" gradientUnits="userSpaceOnUse">
<stop stop-color="#C2715C"/>
<stop offset="1" stop-color="white"/>
</linearGradient>
</defs>
</svg>
