<svg width="24" height="26" viewBox="0 0 24 26" fill="none" xmlns="http://www.w3.org/2000/svg">
<path d="M4.78105 25.7619C4.28408 25.6275 3.76647 25.5432 3.29252 25.3515C-0.155298 23.954 -1.12462 19.4273 1.48724 16.7738C5.20815 12.9948 8.97273 9.25877 12.7183 5.50444C12.9786 5.24354 13.2367 4.98026 13.501 4.72334C14.9244 3.34012 17.1775 3.35046 18.5676 4.74561C19.9624 6.14554 19.9942 8.41086 18.5977 9.82033C15.6913 12.7554 12.7667 15.6722 9.84759 18.5937C9.45779 18.9835 8.90605 18.9938 8.54721 18.6311C8.18838 18.2684 8.20267 17.7203 8.59167 17.3298C11.4671 14.4464 14.3425 11.5639 17.2203 8.68369C17.7951 8.10781 17.9991 7.43728 17.7229 6.66335C17.318 5.5283 15.9097 5.11468 14.9443 5.83374C14.8506 5.90373 14.7617 5.98168 14.6791 6.0644C10.7304 10.0192 6.78083 13.9716 2.83683 17.9311C1.66269 19.1099 1.45469 20.8853 2.30335 22.278C3.49734 24.2387 6.17272 24.5617 7.81922 22.9263C9.90554 20.8535 11.9768 18.7663 14.0536 16.6847C16.0065 14.728 17.9594 12.7705 19.9132 10.8146C21.0746 9.65171 21.6121 8.25655 21.5113 6.60926C21.3676 4.27394 19.4869 2.20428 17.1751 1.85987C15.3706 1.59102 13.817 2.10087 12.5261 3.39262C9.56655 6.35552 6.60697 9.32081 3.65056 12.2885C3.38144 12.5589 3.08135 12.7029 2.70346 12.6027C2.03184 12.4237 1.81908 11.6092 2.31526 11.1017C2.94798 10.4551 3.59181 9.81954 4.23089 9.17844C6.58077 6.82402 8.92907 4.46881 11.2805 2.11599C12.7429 0.653228 14.5124 -0.0483236 16.5765 0.00258264C19.8394 0.0829191 22.7323 2.63619 23.2149 5.86635C23.573 8.25974 22.9029 10.3326 21.2001 12.0459C17.183 16.0858 13.1533 20.1129 9.12913 24.1457C8.24792 25.0294 7.2 25.5718 5.95519 25.7198C5.91391 25.7246 5.87581 25.7476 5.83532 25.7619C5.48442 25.7619 5.13274 25.7619 4.78105 25.7619Z" fill="#212529"/>
</svg>
