<svg width="20" height="20" viewBox="0 0 20 20" fill="none" xmlns="http://www.w3.org/2000/svg">
<path d="M7.06836 0.317383C7.76311 0.216097 8.99939 0.230955 9.67578 0.348633C12.4532 0.832186 14.7763 2.7139 15.8369 5.33984C16.7298 7.55111 16.5253 10.3546 15.3301 12.3574L14.9648 12.9697L15.1025 13.1074L17.3809 15.3916C18.5906 16.6045 19.1858 17.204 19.4834 17.5859C19.6285 17.7721 19.6882 17.8888 19.7168 17.9844C19.746 18.0821 19.7497 18.1778 19.75 18.3496C19.7512 19.1219 19.1215 19.7512 18.3467 19.75C18.1746 19.7497 18.0786 19.7461 17.9805 19.7168C17.8845 19.6882 17.7676 19.6282 17.5811 19.4834C17.1984 19.1862 16.597 18.5924 15.3818 17.3848L13.0938 15.1104L12.9561 14.9746L12.79 15.0732L12.3438 15.3379C11.7013 15.7199 10.7581 16.0762 9.94238 16.2422C9.05459 16.4228 7.6597 16.4394 6.82422 16.2812C3.7362 15.6963 1.26768 13.3956 0.4375 10.3232C0.349216 9.99654 0.304032 9.79892 0.279297 9.53711C0.253908 9.26808 0.249325 8.92727 0.25 8.31445C0.250676 7.69961 0.255868 7.35927 0.282227 7.08887C0.307929 6.8253 0.354194 6.62413 0.445312 6.28809C1.28829 3.17897 3.96643 0.769697 7.06836 0.317383ZM9.29492 2.31738C7.9678 2.08641 6.80986 2.26723 5.55469 2.89551C4.3961 3.47546 3.4872 4.38018 2.86914 5.56348C1.23638 8.6896 2.69804 12.6036 5.99316 13.96C8.25695 14.8918 10.8709 14.3642 12.6123 12.626C15.0756 10.167 14.9925 6.23732 12.4316 3.85547C11.5375 3.02398 10.5336 2.53305 9.29492 2.31738Z" fill="#212529" stroke="#A3BCC8" stroke-width="0.5"/>
</svg>
