<svg width="30" height="32" viewBox="0 0 30 32" fill="none" xmlns="http://www.w3.org/2000/svg">
<path d="M23.8205 6.31371C23.8638 7.356 23.33 7.72026 22.6953 7.98714C20.0012 9.13041 17.2999 10.2593 14.6095 11.4133C13.6465 11.8281 13.0009 11.5901 12.597 10.6235C11.9046 8.97173 11.2157 7.31633 10.4908 5.67897C10.0508 4.68356 10.4042 4.08488 11.3275 3.69177C14.0216 2.54489 16.7121 1.39441 19.4097 0.251136C20.0409 -0.0157473 20.8307 -0.228533 21.1842 0.481954C22.1687 2.45473 23.0127 4.49602 23.8205 6.31371Z" fill="#212529"/>
<path d="M27.8276 15.8097C27.9466 17.1009 27.3624 17.4291 26.742 17.6923C24.0516 18.8356 21.3431 19.9428 18.667 21.1149C17.7438 21.5189 17.1198 21.2412 16.7484 20.4297C15.9766 18.7491 15.2589 17.0432 14.5736 15.3265C14.2094 14.4104 14.4907 13.754 15.4825 13.3465C18.1838 12.232 20.8526 11.0383 23.5503 9.90944C24.1562 9.65699 24.9604 9.44059 25.3211 10.1799C26.2804 12.1599 27.1207 14.1976 27.8276 15.8097Z" fill="#212529"/>
<path d="M29.8401 20.0654C29.4145 19.2395 28.6571 19.3404 27.9611 19.6434C25.6565 20.6352 23.3664 21.6667 21.0726 22.6765C17.2028 24.3824 15.7818 23.8089 14.1445 19.9139C11.9012 14.569 9.64353 9.23134 7.39305 3.89007C7.03961 3.04974 6.72224 2.01828 5.53209 2.5304C3.83341 3.25892 2.19244 4.1317 0.558686 4.99727C-0.0796695 5.33628 -0.126554 5.99267 0.194427 6.56251C0.475736 7.0566 0.980649 7.30545 1.57933 7.04939C2.23572 6.76086 2.95703 6.55169 3.51964 6.12972C5.05602 4.97924 5.61504 5.65366 6.23175 7.17201C8.39206 12.4844 10.6534 17.7572 12.976 23.0011C13.3438 23.8306 13.3763 24.0506 12.5576 24.5555C10.4117 25.8791 10.1773 28.5912 11.9661 30.2033C13.1599 31.2781 14.5376 31.4404 15.9658 30.7515C17.6248 29.9509 18.1621 28.4938 17.7618 26.2073C21.8516 25.3814 25.4185 23.2319 29.2162 21.6847C29.9338 21.3962 30.2007 20.765 29.8401 20.0654ZM14.5051 28.7823C13.755 28.7319 13.2681 28.4037 13.2068 27.7256C13.1383 26.9791 13.5422 26.4561 14.3104 26.3984C14.9956 26.3479 15.4428 26.7771 15.5438 27.4299C15.67 28.2414 15.1038 28.5732 14.5051 28.7823Z" fill="#212529"/>
</svg>
