<svg width="35" height="36" viewBox="0 0 35 36" fill="none" xmlns="http://www.w3.org/2000/svg">
<path d="M30.5339 20.445C26.0423 20.445 21.6498 20.445 17.214 20.445C12.6759 20.445 8.12234 20.4047 3.58426 20.445C3.16653 20.4494 2.80985 20.445 2.50008 20.445C2.50008 20.2901 2.47807 19.7301 2.48453 19.2679C2.53719 16.1237 2.54339 12.9765 2.48763 9.82932C2.46285 8.37652 3.06384 7.71674 4.51354 7.74462C7.04124 7.79109 9.62469 7.74462 12.1028 7.74462C12.4922 7.74462 12.8772 7.74462 13.0321 7.74462C13.0321 7.58974 13.0321 7.12863 13.0321 6.66044C13.0321 6.28509 13.0321 5.57627 13.0321 5.2665C12.7224 5.2665 12.3058 5.2665 12.1028 5.2665C9.46981 5.2665 6.83369 5.24791 4.20378 5.2665C1.55837 5.28818 0.0311838 6.90824 0.0249885 9.57531C0.0156955 15.0953 0.0156955 20.6122 0.0249885 26.1322C0.0265496 27.4685 -0.193061 28.9007 0.641556 29.7379C1.47617 30.5752 2.91793 30.3405 4.24091 30.3512C6.56106 30.3698 8.8812 30.3481 11.2045 30.3574C11.6117 30.3595 12.1028 30.3574 12.4126 30.3574C12.4126 30.5123 12.4126 30.9141 12.4126 31.2867C12.4126 31.7235 12.4126 32.5258 12.4126 32.8356C12.2577 32.8356 11.9532 32.841 11.4089 32.8449C11.0155 32.8476 10.8638 32.8356 10.554 32.8356C10.554 33.3002 10.554 33.8322 10.554 34.2295C10.554 34.553 10.554 35.0039 10.554 35.3137C10.7089 35.3137 11.1567 35.3137 11.4833 35.3137C14.628 35.3137 17.8335 35.3137 20.9312 35.3137C21.3439 35.3137 21.7056 35.3137 22.0154 35.3137C22.0154 35.0039 22.0154 34.5254 22.0154 34.2295C22.0154 33.8064 22.0154 33.1453 22.0154 32.8356C21.8605 32.8356 21.3778 32.8394 21.0024 32.8387C20.4965 32.8376 20.3116 32.8356 20.1568 32.8356C20.1568 32.5258 20.1568 31.7514 20.1568 31.2867C20.1568 30.923 20.1568 30.5123 20.1568 30.3574C20.4665 30.3574 20.6322 30.3498 21.0861 30.3574C23.5642 30.3574 25.8874 30.3574 28.3656 30.3574C29.5661 30.3458 31.0791 30.5867 31.928 29.7379C32.7768 28.8891 32.5293 27.5235 32.5474 26.1756C32.566 24.887 32.5474 23.6975 32.5474 22.4584C32.5474 21.759 32.5754 20.9096 32.5474 20.445C32.0828 20.445 31.2934 20.4369 30.5339 20.445ZM16.2847 32.8356C15.6651 32.8356 15.3276 32.8356 14.8907 32.8356C14.8907 32.5258 14.8907 31.9063 14.8907 31.4416C14.8907 31.0238 14.8907 30.5123 14.8907 30.3574C15.2005 30.3574 15.82 30.3574 16.2847 30.3574C16.9042 30.3574 17.3689 30.3574 17.6786 30.3574C17.6786 30.6672 17.6786 31.2105 17.6786 31.5965C17.6786 32.0612 17.6786 32.6807 17.6786 32.8356C17.3689 32.8356 16.8089 32.8356 16.2847 32.8356ZM26.3521 27.8793C19.1469 27.8793 12.0285 27.8824 4.82333 27.8793C3.89956 27.8793 2.90367 27.9732 2.65495 27.7244C2.40622 27.4757 2.50937 26.5992 2.50622 25.6459C2.50166 24.2891 2.50008 23.3877 2.50008 22.9231C2.96473 22.9231 3.85496 22.9231 5.28798 22.9231C8.94322 22.9231 12.6294 22.9231 16.2847 22.9231C20.4541 22.9231 24.4935 22.9231 28.6753 22.9231C29.2081 22.9149 29.9144 22.9231 30.0693 22.9231C30.0693 23.2329 30.0708 23.6834 30.0693 24.1621C30.0693 26.0207 30.2241 27.4147 29.9144 27.7244C29.6046 28.0342 28.1973 27.8793 26.3521 27.8793Z" fill="#212529"/>
<path d="M33.4884 17.0995C33.0516 16.6628 32.6427 16.1888 32.1688 15.7954C31.5802 15.3091 31.605 14.9219 32.0077 14.259C33.3397 12.0751 33.7455 9.72092 33.1445 7.17465C32.082 2.67377 27.2466 -0.662394 22.7922 0.112017C17.6284 1.01343 14.1404 5.51432 14.7971 10.4427C15.7171 17.3721 22.8169 20.8848 28.8946 17.3783C29.5729 16.988 29.9261 16.9942 30.4372 17.558C31.3355 18.5492 32.3082 19.4754 33.2499 20.4264C35.1673 18.7784 35.1673 18.7784 33.4884 17.0995ZM24.025 16.1702C20.1963 16.1888 17.1978 13.1965 17.1978 9.36159C17.1978 5.536 20.1994 2.52199 24.0188 2.51579C27.8166 2.5096 30.9142 5.52671 30.9576 9.27486C31.001 13.1376 27.9683 16.1516 24.025 16.1702Z" fill="#212529"/>
<path d="M16.2842 26.6402C15.7173 26.6402 15.0452 26.6402 14.5154 26.6433C13.8061 26.6402 13.3414 26.6402 13.0316 26.6402C13.0317 26.3304 13.0154 25.664 13.0317 25.0914C13.0417 24.7415 13.0317 24.3169 13.0316 24.1621C13.1866 24.1621 13.7252 24.1504 14.1159 24.1621C15.6647 24.1621 17.0586 24.1621 18.5299 24.1621C18.9539 24.1421 19.3819 24.1621 19.5368 24.1621C19.5368 24.4718 19.5368 24.9365 19.5368 25.2462C19.5368 25.7109 19.5368 26.3304 19.5368 26.6402C19.227 26.6402 18.9172 26.6402 18.5299 26.6402C17.6782 26.6402 17.0586 26.6402 16.2842 26.6402Z" fill="#212529"/>
<path d="M28.0584 9.33984C27.412 9.43528 26.8534 9.2531 26.6428 8.44771C26.4074 7.5463 25.729 7.02899 24.8461 6.74711C24.4899 6.63249 24.0997 6.44537 24.0996 5.97579C24.0995 5.28294 24.0995 4.71324 24.2731 4.21013C24.7408 3.81053 25.5121 4.12031 26.0419 4.33714C27.6217 4.98455 28.616 6.29485 29.1519 7.96758C29.5205 9.11371 28.7363 9.23975 28.0584 9.33984Z" fill="#212529"/>
</svg>
