<svg width="30" height="31" viewBox="0 0 30 31" fill="none" xmlns="http://www.w3.org/2000/svg">
<path d="M11.0534 24.0799C11.0534 20.264 10.7902 20.1806 13.764 19.2613C15.0616 18.8602 15.264 19.2982 15.264 17.2375C15.264 12.9321 15.0062 13.5532 18.5537 11.8426C20.1327 11.0812 20.8064 10.8662 22.1065 11.5794C26.2944 13.8769 25.7908 11.9742 25.7908 17.2376C25.7908 19.0797 25.5352 18.7068 26.9935 19.3087C30.2647 20.6587 29.991 20.0877 29.9963 24.151C29.9989 28.1143 30.1331 27.3598 27.1066 28.817C25.2256 29.7227 24.7381 30.2317 22.238 28.817C19.801 27.438 20.5274 27.8019 18.1589 28.817C15.6201 29.9051 15.9219 30.0539 13.5008 28.9275C10.5902 27.5735 11.0534 28.1591 11.0534 24.0799ZM16.843 27.6327C19.7379 26.8432 19.4747 27.3696 19.4747 23.1589C16.5799 23.9484 16.843 23.422 16.843 27.6327ZM23.9486 27.6327C23.9486 23.1589 23.9486 24.151 21.3169 23.1589C21.3169 27.6327 21.0538 26.3169 23.9486 27.6327ZM17.1062 15.5269C17.1062 18.685 16.843 19.2113 19.4747 19.7377C19.4747 15.7901 19.8695 16.5796 17.1062 15.5269ZM23.6854 15.5269C20.9222 16.5796 21.3169 15.9217 21.3169 19.7377C23.9486 19.3087 23.6854 18.5534 23.6854 15.5269ZM12.6323 23.1589C12.6323 27.3696 12.106 26.8432 15.0009 27.6327C15.0009 23.422 15.264 23.9484 12.6323 23.1589ZM28.4225 23.1589C25.5276 23.9484 25.7908 23.1589 25.7908 27.6327C28.4225 26.5801 28.4225 27.6327 28.4225 23.1589ZM17.1062 13.9479C20.0011 15.5269 20.7906 15.5269 23.6854 13.9479C20.7906 12.5005 20.0011 12.5005 17.1062 13.9479ZM19.4747 21.5798C16.0535 20.264 15.5272 20.264 12.6323 21.5798C15.5272 23.1589 16.0535 23.1589 19.4747 21.5798ZM21.3169 21.5798C24.475 23.1589 25.2645 23.1589 28.4225 21.5798C25.2645 20.264 24.475 20.264 21.3169 21.5798Z" fill="#212529"/>
<path d="M2.2501 27.8881C4.64494 27.8881 6.92398 27.9039 9.20302 27.8803C9.98464 27.8724 10.7136 28.0118 10.7189 28.904C10.7241 29.7514 10.0557 30.0251 9.24513 30.0198C6.65818 30.0014 4.0686 30.004 1.48165 30.0172C0.418448 30.0225 0.00264151 29.4987 0.00527319 28.4697C0.0157999 19.5167 0.0184316 10.5689 9.81819e-06 1.61854C-0.00262187 0.42112 0.523716 -0.00521533 1.67903 4.80641e-05C7.73191 0.026365 13.7874 0.0237333 19.8403 4.80641e-05C20.9719 -0.00521533 21.3325 0.471074 21.3167 1.57902C21.2825 3.77122 21.2956 5.96606 21.3167 8.15826C21.3246 8.94251 21.2035 9.73996 20.3482 9.60048C19.914 9.52942 19.2113 9.86887 19.2113 8.15826C19.2113 6.18449 19.2482 4.27129 19.2482 2.13962C18.2087 2.13962 17.2139 2.07383 16.2402 2.18173C15.9638 2.21331 15.6454 2.71859 15.5138 3.07124C14.6032 5.47661 15.1059 5.36345 12.1821 5.35818C10.7347 5.35555 9.28197 5.41871 7.84244 5.31871C7.37663 5.28713 6.77661 4.93185 6.52923 4.54236C6.07658 3.82917 6.03447 2.53964 5.46866 2.28962C4.58967 1.90277 3.41594 2.18699 2.2501 2.18699C2.2501 10.7084 2.2501 19.222 2.2501 27.8881ZM13.4321 2.17909C11.5847 2.17909 9.84779 2.17909 8.10824 2.17909C8.23983 2.68438 8.53458 3.12914 8.87933 3.17124C11.8058 3.52652 13.0374 3.26598 13.4321 2.17909Z" fill="#212529"/>
<path d="M7.52967 23.5509C7.53757 24.7036 6.50595 25.7431 5.3638 25.73C4.22691 25.7168 3.17949 24.6378 3.21371 23.5167C3.24792 22.4246 4.2348 21.4403 5.33222 21.4061C6.47437 21.3745 7.52178 22.3956 7.52967 23.5509Z" fill="#212529"/>
<path d="M7.52373 8.63972C7.49215 9.79766 6.43158 10.8135 5.30522 10.7609C4.18675 10.7082 3.14723 9.5766 3.21829 8.48971C3.29198 7.36334 4.25254 6.46857 5.39206 6.4712C6.57895 6.47383 7.55531 7.46598 7.52373 8.63972Z" fill="#212529"/>
<path d="M7.5238 16.1402C7.48696 17.3113 6.45271 18.2376 5.25002 18.1824C4.12629 18.1297 3.17362 17.1165 3.2131 16.0218C3.25521 14.8822 4.34999 13.898 5.50267 13.9611C6.61061 14.019 7.56065 15.0454 7.5238 16.1402Z" fill="#212529"/>
</svg>
